{"accessors":[{"bufferView":0,"componentType":5126,"count":4,"max":[10.0,0.0,10.0],"min":[-10.0,0.0,-10.0],"normalized":false,"type":"VEC3"},{"bufferView":1,"componentType":5126,"count":4,"max":[1.0,0.0,-1.5259021893143654e-05,1.0],"min":[1.0,0.0,-1.5259021893143654e-05,1.0],"normalized":false,"type":"VEC4"},{"bufferView":2,"componentType":5126,"count":4,"max":[0.0,1.0,-1.5259021893143654e-05],"min":[0.0,1.0,-1.5259021893143654e-05],"normalized":false,"type":"VEC3"},{"bufferView":3,"componentType":5126,"count":4,"max":[1.0,1.0],"min":[0.0,0.0],"normalized":false,"type":"VEC2"},{"bufferView":4,"componentType":5121,"count":6,"max":[3],"min":[0],"normalized":false,"type":"SCALAR"},{"bufferView":5,"componentType":5126,"count":1950,"max":[0.5,1.0,0.5],"min":[-0.5,-1.0,-0.5],"normalized":false,"type":"VEC3"},{"bufferView":6,"componentType":5126,"count":1950,"max":[1.0,0.0,1.0,1.0],"min":[-1.0,-2.157951530534774e-05,-1.0,1.0],"normalized":false,"type":"VEC4"},{"bufferView":7,"componentType":5126,"count":1950,"max":[1.0,1.0,1.0],"min":[-1.0,-1.0,-1.0],"normalized":false,"type":"VEC3"},{"bufferView":8,"componentType":5126,"count":1950,"max":[1.0,1.0],"min":[0.0,0.0],"normalized":false,"type":"VEC2"},{"bufferView":9,"componentType":5123,"count":10368,"max":[1949],"min":[0],"normalized":false,"type":"SCALAR"}],"asset":{"generator":"Godot Engine v4.6.2.stable.official@71f334935c000924d403448e698df4441130df18","version":"2.0"},"bufferViews":[{"buffer":0,"byteLength":48,"byteStride":12,"target":34962},{"buffer":0,"byteLength":64,"byteOffset":48,"byteStride":16,"target":34962},{"buffer":0,"byteLength":48,"byteOffset":112,"byteStride":12,"target":34962},{"buffer":0,"byteLength":32,"byteOffset":160,"byteStride":8,"target":34962},{"buffer":0,"byteLength":6,"byteOffset":192,"target":34963},{"buffer":0,"byteLength":23400,"byteOffset":200,"byteStride":12,"target":34962},{"buffer":0,"byteLength":31200,"byteOffset":23600,"byteStride":16,"target":34962},{"buffer":0,"byteLength":23400,"byteOffset":54800,"byteStride":12,"target":34962},{"buffer":0,"byteLength":15600,"byteOffset":78200,"byteStride":8,"target":34962},{"buffer":0,"byteLength":20736,"byteOffset":93800,"target":34963}],"buffers":[{"byteLength":114536,"uri":"ward0.bin"}],"extensionsRequired":["KHR_texture_transform"],"extensionsUsed":["GODOT_single_root","KHR_materials_unlit","KHR_texture_transform"],"images":[{"name":"default_texture_1","uri":"textures%2Fdefault_texture_1.png"}],"materials":[{"extensions":{"KHR_materials_unlit":{}},"pbrMetallicRoughness":{"baseColorFactor":[1.0,1.0,1.0,1.0],"baseColorTexture":{"extensions":{"KHR_texture_transform":{"scale":[7.0,7.0]}},"index":0},"metallicFactor":0.0,"roughnessFactor":1.0}}],"meshes":[{"primitives":[{"attributes":{"NORMAL":2,"POSITION":0,"TANGENT":1,"TEXCOORD_0":3},"indices":4,"material":0,"mode":4}]},{"primitives":[{"attributes":{"NORMAL":7,"POSITION":5,"TANGENT":6,"TEXCOORD_0":8},"indices":9,"mode":4}]}],"nodes":[{"children":[1,2],"name":"ward"},{"mesh":0,"name":"floor"},{"mesh":1,"name":"player","translation":[2.0,1.0,-0.6442474722862244]}],"samplers":[{"magFilter":9728,"minFilter":9728,"wrapS":10497,"wrapT":10497}],"scene":0,"scenes":[{"nodes":[0]}],"textures":[{"sampler":0,"source":0}]}