# Made in Blockbench 5.1.4
mtllib antidote_stand.mtl

o mesh
v -1 3 1.25
v -1 3 -1.25
v -1 0 1.25
v -1 0 -1.25
v -1.25 3 1.25
v -1.25 3 -1.25
v -1.25 0 1.25
v -1.25 0 -1.25
vt 0.15625 1
vt 0 1
vt 0 0.8125
vt 0.15625 0.8125
vt 0.05859375 0.45703125
vt 0.04296875 0.45703125
vt 0.04296875 0.26953125
vt 0.05859375 0.26953125
vt 0.23828125 0.30078125
vt 0.25390625 0.30078125
vt 0.25390625 0.45703125
vt 0.23828125 0.45703125
vt 0.31640625 0.8125
vt 0.31640625 1
vt 0.16015625 1
vt 0.16015625 0.8125
vt 0.078125 0.26953125
vt 0.078125 0.45703125
vt 0.0625 0.45703125
vt 0.0625 0.26953125
vt 0.49609375 0.2890625
vt 0.49609375 0.4453125
vt 0.48046875 0.4453125
vt 0.48046875 0.2890625
vn 1 0 0
vn 0 0 -1
vn 0 1 0
vn -1 0 0
vn 0 0 1
vn 0 -1 0
usemtl m_970eaebc-aaa2-881a-e5fb-1c4b185cf4b5
f 2/1/1 1/2/1 3/3/1 4/4/1
f 6/5/2 2/6/2 4/7/2 8/8/2
f 5/9/3 1/10/3 2/11/3 6/12/3
f 7/13/4 5/14/4 6/15/4 8/16/4
f 3/17/5 1/18/5 5/19/5 7/20/5
f 4/21/6 3/22/6 7/23/6 8/24/6
o mesh
v 1.25 3 1.25
v 1.25 3 0.875
v 1.25 0 1.25
v 1.25 0 0.875
v 1 3 1.25
v 1 3 0.875
v 1 0 1.25
v 1 0 0.875
vt 0.17578125 0.45703125
vt 0.16015625 0.45703125
vt 0.16015625 0.26953125
vt 0.17578125 0.26953125
vt 0.2578125 0.625
vt 0.2734375 0.625
vt 0.2734375 0.6484375
vt 0.2578125 0.6484375
vt 0.39453125 0.30078125
vt 0.39453125 0.48828125
vt 0.37109375 0.48828125
vt 0.37109375 0.30078125
vt 0.421875 0.48828125
vt 0.3984375 0.48828125
vt 0.3984375 0.30078125
vt 0.421875 0.30078125
vt 0.1953125 0.26953125
vt 0.1953125 0.45703125
vt 0.1796875 0.45703125
vt 0.1796875 0.26953125
vt 0.29296875 0.625
vt 0.29296875 0.6484375
vt 0.27734375 0.6484375
vt 0.27734375 0.625
vn 0 0 -1
vn 0 1 0
vn -1 0 0
vn 1 0 0
vn 0 0 1
vn 0 -1 0
usemtl m_970eaebc-aaa2-881a-e5fb-1c4b185cf4b5
f 14/25/7 10/26/7 12/27/7 16/28/7
f 13/29/8 9/30/8 10/31/8 14/32/8
f 15/33/9 13/34/9 14/35/9 16/36/9
f 10/37/10 9/38/10 11/39/10 12/40/10
f 11/41/11 9/42/11 13/43/11 15/44/11
f 12/45/12 11/46/12 15/47/12 16/48/12
o mesh
v 1 3 1.25
v 1 3 1
v 1 0 1.25
v 1 0 1
v -1 3 1.25
v -1 3 1
v -1 0 1.25
v -1 0 1
vt 0.09765625 0.26953125
vt 0.09765625 0.45703125
vt 0.08203125 0.45703125
vt 0.08203125 0.26953125
vt 0.4453125 1
vt 0.3203125 1
vt 0.3203125 0.8125
vt 0.4453125 0.8125
vt 0.55859375 0.5703125
vt 0.68359375 0.5703125
vt 0.68359375 0.5859375
vt 0.55859375 0.5859375
vt 0.1171875 0.26953125
vt 0.1171875 0.45703125
vt 0.1015625 0.45703125
vt 0.1015625 0.26953125
vt 0.4453125 0.62109375
vt 0.4453125 0.80859375
vt 0.3203125 0.80859375
vt 0.3203125 0.62109375
vt 0.68359375 0.55078125
vt 0.68359375 0.56640625
vt 0.55859375 0.56640625
vt 0.55859375 0.55078125
vn -1 0 0
vn 0 0 -1
vn 0 1 0
vn -1 0 0
vn 0 0 1
vn 0 -1 0
usemtl m_970eaebc-aaa2-881a-e5fb-1c4b185cf4b5
f 23/49/13 21/50/13 22/51/13 24/52/13
f 22/53/14 18/54/14 20/55/14 24/56/14
f 21/57/15 17/58/15 18/59/15 22/60/15
f 19/61/16 17/62/16 18/63/16 20/64/16
f 19/65/17 17/66/17 21/67/17 23/68/17
f 20/69/18 19/70/18 23/71/18 24/72/18
o mesh
v 1 3 -1
v 1 3 -1.25
v 1 0 -1
v 1 0 -1.25
v -1 3 -1
v -1 3 -1.25
v -1 0 -1
v -1 0 -1.25
vt 0.13671875 0.26953125
vt 0.13671875 0.45703125
vt 0.12109375 0.45703125
vt 0.12109375 0.26953125
vt 0.125 0.4609375
vt 0.125 0.6484375
vt 0 0.6484375
vt 0 0.4609375
vt 0.55859375 0.53125
vt 0.68359375 0.53125
vt 0.68359375 0.546875
vt 0.55859375 0.546875
vt 0.25390625 0.6484375
vt 0.12890625 0.6484375
vt 0.12890625 0.4609375
vt 0.25390625 0.4609375
vt 0.15625 0.45703125
vt 0.140625 0.45703125
vt 0.140625 0.26953125
vt 0.15625 0.26953125
vt 0.6875 0.71875
vt 0.6875 0.734375
vt 0.5625 0.734375
vt 0.5625 0.71875
vn -1 0 0
vn 0 0 1
vn 0 1 0
vn 0 0 -1
vn 1 0 0
vn 0 -1 0
usemtl m_970eaebc-aaa2-881a-e5fb-1c4b185cf4b5
f 31/73/19 29/74/19 30/75/19 32/76/19
f 27/77/20 25/78/20 29/79/20 31/80/20
f 29/81/21 25/82/21 26/83/21 30/84/21
f 30/85/22 26/86/22 28/87/22 32/88/22
f 26/89/23 25/90/23 27/91/23 28/92/23
f 28/93/24 27/94/24 31/95/24 32/96/24
o mesh
v 1.25 3 -0.875
v 1.25 3 -1.25
v 1.25 0 -0.875
v 1.25 0 -1.25
v 1 3 -0.875
v 1 3 -1.25
v 1 0 -0.875
v 1 0 -1.25
vt 0.296875 0.625
vt 0.3125 0.625
vt 0.3125 0.6484375
vt 0.296875 0.6484375
vt 0.21484375 0.26953125
vt 0.21484375 0.45703125
vt 0.19921875 0.45703125
vt 0.19921875 0.26953125
vt 0.44921875 0.30078125
vt 0.44921875 0.48828125
vt 0.42578125 0.48828125
vt 0.42578125 0.30078125
vt 0.4765625 0.48828125
vt 0.453125 0.48828125
vt 0.453125 0.30078125
vt 0.4765625 0.30078125
vt 0.234375 0.45703125
vt 0.21875 0.45703125
vt 0.21875 0.26953125
vt 0.234375 0.26953125
vt 0.59375 0.9765625
vt 0.59375 1
vt 0.578125 1
vt 0.578125 0.9765625
vn 0 1 0
vn 0 0 1
vn -1 0 0
vn 1 0 0
vn 0 0 -1
vn 0 -1 0
usemtl m_970eaebc-aaa2-881a-e5fb-1c4b185cf4b5
f 37/97/25 33/98/25 34/99/25 38/100/25
f 35/101/26 33/102/26 37/103/26 39/104/26
f 39/105/27 37/106/27 38/107/27 40/108/27
f 34/109/28 33/110/28 35/111/28 36/112/28
f 38/113/29 34/114/29 36/115/29 40/116/29
f 36/117/30 35/118/30 39/119/30 40/120/30
o mesh
v 1.25 1 0.8750000000000001
v 1.25 1 -0.8750000000000001
v 1.25 0 0.8750000000000001
v 1.25 0 -0.8750000000000001
v 1 1 0.8750000000000001
v 1 1 -0.8750000000000001
v 1 0 0.8750000000000001
v 1 0 -0.8750000000000001
vt 0.5546875 0.42578125
vt 0.5390625 0.42578125
vt 0.5390625 0.36328125
vt 0.5546875 0.36328125
vt 0.57421875 0.36328125
vt 0.57421875 0.42578125
vt 0.55859375 0.42578125
vt 0.55859375 0.36328125
vt 0.5 0.31640625
vt 0.515625 0.31640625
vt 0.515625 0.42578125
vt 0.5 0.42578125
vt 0.55859375 0.671875
vt 0.55859375 0.734375
vt 0.44921875 0.734375
vt 0.44921875 0.671875
vt 0.3671875 0.48828125
vt 0.2578125 0.48828125
vt 0.2578125 0.42578125
vt 0.3671875 0.42578125
vt 0.53515625 0.31640625
vt 0.53515625 0.42578125
vt 0.51953125 0.42578125
vt 0.51953125 0.31640625
vn 0 0 -1
vn 0 0 1
vn 0 1 0
vn -1 0 0
vn 1 0 0
vn 0 -1 0
usemtl m_970eaebc-aaa2-881a-e5fb-1c4b185cf4b5
f 46/121/31 42/122/31 44/123/31 48/124/31
f 43/125/32 41/126/32 45/127/32 47/128/32
f 45/129/33 41/130/33 42/131/33 46/132/33
f 47/133/34 45/134/34 46/135/34 48/136/34
f 42/137/35 41/138/35 43/139/35 44/140/35
f 44/141/36 43/142/36 47/143/36 48/144/36
o mesh
v 1.25 3.25 1.25
v 1.25 3.25 -1.25
v 1.25 3 1.25
v 1.25 3 -1.25
v -1.25 3.25 1.25
v -1.25 3.25 -1.25
v -1.25 3 1.25
v -1.25 3 -1.25
vt 0.15625 0.65234375
vt 0.15625 0.80859375
vt 0 0.80859375
vt 0 0.65234375
vt 0.671875 0.51171875
vt 0.515625 0.51171875
vt 0.515625 0.49609375
vt 0.671875 0.49609375
vt 0.65625 0.4453125
vt 0.5 0.4453125
vt 0.5 0.4296875
vt 0.65625 0.4296875
vt 0.16015625 0.65234375
vt 0.31640625 0.65234375
vt 0.31640625 0.80859375
vt 0.16015625 0.80859375
vt 0.71484375 0.609375
vt 0.71484375 0.625
vt 0.55859375 0.625
vt 0.55859375 0.609375
vt 0.71484375 0.58984375
vt 0.71484375 0.60546875
vt 0.55859375 0.60546875
vt 0.55859375 0.58984375
vn 0 -1 0
vn 1 0 0
vn 0 0 -1
vn 0 1 0
vn -1 0 0
vn 0 0 1
usemtl m_970eaebc-aaa2-881a-e5fb-1c4b185cf4b5
f 52/145/37 51/146/37 55/147/37 56/148/37
f 50/149/38 49/150/38 51/151/38 52/152/38
f 54/153/39 50/154/39 52/155/39 56/156/39
f 53/157/40 49/158/40 50/159/40 54/160/40
f 55/161/41 53/162/41 54/163/41 56/164/41
f 51/165/42 49/166/42 53/167/42 55/168/42
o mesh
v 1.0000000000000002 1 1
v 1.0000000000000002 1 -1
v 1.0000000000000002 0 1
v 1.0000000000000002 0 -1
v -1.0000000000000002 1 1
v -1.0000000000000002 1 -1
v -1.0000000000000002 0 1
v -1.0000000000000002 0 -1
vt 0.57421875 1
vt 0.44921875 1
vt 0.44921875 0.9375
vt 0.57421875 0.9375
vt 0.57421875 0.87109375
vt 0.57421875 0.93359375
vt 0.44921875 0.93359375
vt 0.44921875 0.87109375
vt 0.2578125 0.4921875
vt 0.3828125 0.4921875
vt 0.3828125 0.6171875
vt 0.2578125 0.6171875
vt 0.51171875 0.4921875
vt 0.51171875 0.6171875
vt 0.38671875 0.6171875
vt 0.38671875 0.4921875
vt 0.57421875 0.8046875
vt 0.57421875 0.8671875
vt 0.44921875 0.8671875
vt 0.44921875 0.8046875
vt 0.57421875 0.80078125
vt 0.44921875 0.80078125
vt 0.44921875 0.73828125
vt 0.57421875 0.73828125
vn 1 0 0
vn -1 0 0
vn 0 1 0
vn 0 -1 0
vn 0 0 1
vn 0 0 -1
usemtl m_970eaebc-aaa2-881a-e5fb-1c4b185cf4b5
f 58/169/43 57/170/43 59/171/43 60/172/43
f 63/173/44 61/174/44 62/175/44 64/176/44
f 61/177/45 57/178/45 58/179/45 62/180/45
f 60/181/46 59/182/46 63/183/46 64/184/46
f 59/185/47 57/186/47 61/187/47 63/188/47
f 62/189/48 58/190/48 60/191/48 64/192/48
o mesh
v 1.6812184335382292 0.48927669529663687 0.8750000000000001
v 1.6812184335382292 0.48927669529663687 -0.8750000000000001
v 1.239276695296637 0.047334957055044646 0.8750000000000001
v 1.239276695296637 0.047334957055044646 -0.8750000000000001
v 1.239276695296637 0.9312184335382291 0.8750000000000001
v 1.239276695296637 0.9312184335382291 -0.8750000000000001
v 0.7973349570550448 0.48927669529663687 0.8750000000000001
v 0.7973349570550448 0.48927669529663687 -0.8750000000000001
vt 0.55859375 0.66796875
vt 0.44921875 0.66796875
vt 0.44921875 0.62890625
vt 0.55859375 0.62890625
vt 0.58984375 0.44921875
vt 0.58984375 0.48828125
vt 0.48046875 0.48828125
vt 0.48046875 0.44921875
vt 0.515625 0.515625
vt 0.5546875 0.515625
vt 0.5546875 0.625
vt 0.515625 0.625
vt 0.0390625 0.34765625
vt 0.0390625 0.45703125
vt 0 0.45703125
vt 0 0.34765625
vt 0.6015625 0.67578125
vt 0.6015625 0.71484375
vt 0.5625 0.71484375
vt 0.5625 0.67578125
vt 0.6015625 0.671875
vt 0.5625 0.671875
vt 0.5625 0.6328125
vt 0.6015625 0.6328125
vn 0.7071067811865475 -0.7071067811865476 0
vn -0.7071067811865475 0.7071067811865476 0
vn 0.7071067811865476 0.7071067811865475 0
vn -0.7071067811865476 -0.7071067811865475 0
vn 0 0 1
vn 0 0 -1
usemtl m_970eaebc-aaa2-881a-e5fb-1c4b185cf4b5
f 66/193/49 65/194/49 67/195/49 68/196/49
f 71/197/50 69/198/50 70/199/50 72/200/50
f 69/201/51 65/202/51 66/203/51 70/204/51
f 68/205/52 67/206/52 71/207/52 72/208/52
f 67/209/53 65/210/53 69/211/53 71/212/53
f 70/213/54 66/214/54 68/215/54 72/216/54