# Made in Blockbench 5.1.6
mtllib bucket.mtl

o tube
v 0.11588137289060528 0 0.375
v 0.16245984811645314 1 0.49999999999999994
v 0.09287454286468855 0 0.3005483340893503
v 0.1302054312208236 1 0.4007311121191336
v 0.30338137289060535 0 0.2317627457812106
v 0.42532540417602 1 0.3090169943749474
v 0.24314870990936369 0 0.18574908572937715
v 0.34088224445595294 1 0.24766544763916948
v 0.375 0 2.4143809637582827e-17
v 0.5257311121191336 1 3.219174618344376e-17
v 0.3005483340893502 0 1.9350351373722443e-17
v 0.42135362647025865 1 2.5800468498296586e-17
v 0.30338137289060535 0 -0.23176274578121056
v 0.42532540417602 1 -0.30901699437494734
v 0.24314870990936369 0 -0.1857490857293771
v 0.34088224445595294 1 -0.24766544763916942
v 0.11588137289060532 0 -0.375
v 0.1624598481164532 1 -0.49999999999999994
v 0.09287454286468858 0 -0.3005483340893503
v 0.13020543122082365 1 -0.4007311121191336
v -0.11588137289060543 0 -0.375
v -0.1624598481164533 1 -0.49999999999999994
v -0.09287454286468864 0 -0.3005483340893503
v -0.13020543122082373 1 -0.4007311121191336
v -0.3033813728906053 0 -0.23176274578121064
v -0.4253254041760199 1 -0.30901699437494745
v -0.24314870990936363 0 -0.18574908572937718
v -0.3408822444559529 1 -0.2476654476391695
v -0.375 0 -7.243142891274849e-17
v -0.5257311121191336 1 -9.657523855033128e-17
v -0.3005483340893502 0 -5.805105412116732e-17
v -0.42135362647025865 1 -7.740140549488975e-17
v -0.30338137289060535 0 0.2317627457812105
v -0.42532540417602005 1 0.3090169943749473
v -0.24314870990936369 0 0.18574908572937707
v -0.340882244455953 1 0.24766544763916937
v -0.1158813728906054 0 0.375
v -0.16245984811645328 1 0.49999999999999994
v -0.09287454286468864 0 0.3005483340893503
v -0.13020543122082373 1 0.4007311121191336
v 0.42532540417602 0.5 0.3090169943749474
v 0.16245984811645314 0.5 0.49999999999999994
v -0.16245984811645328 0.5 0.49999999999999994
v -0.42532540417602005 0.5 0.3090169943749473
v -0.5257311121191336 0.5 -9.657523855033128e-17
v -0.4253254041760199 0.5 -0.30901699437494745
v -0.1624598481164533 0.5 -0.49999999999999994
v 0.1624598481164532 0.5 -0.49999999999999994
v 0.42532540417602 0.5 -0.30901699437494734
v 0.5257311121191336 0.5 3.219174618344376e-17
v 0.16245984811645314 0.75 0.49999999999999994
v 0.42532540417602 0.75 0.3090169943749474
v 0.5257311121191336 0.75 3.219174618344376e-17
v 0.42532540417602 0.75 -0.30901699437494734
v 0.1624598481164532 0.75 -0.49999999999999994
v -0.1624598481164533 0.75 -0.49999999999999994
v -0.4253254041760199 0.75 -0.30901699437494745
v -0.5257311121191336 0.75 -9.657523855033128e-17
v -0.42532540417602005 0.75 0.3090169943749473
v -0.16245984811645328 0.75 0.49999999999999994
vt 0.26484380219911274 0.8203125
vt 0.26484380219911274 0.8515625
vt 0.22422817719911275 0.8515625
vt 0.22422817719911275 0.8203125
vt 0.26106796837139346 0.7421875
vt 0.22858654443172854 0.7400517752885329
vt 0.24215799968730245 0.6149523423002725
vt 0.26573433350383124 0.6165636069318606
vt 0.386609375 0.6781937499999999
vt 0.40539375 0.6638437500000001
vt 0.41292265625 0.6695953125
vt 0.38948515625 0.6875
vt 0.08671406250000001 0.734375
vt 0.11957187500000001 0.75824765625
vt 0.10901640625000002 0.7659171874999999
vt 0.08268203125000001 0.74678359375
vt 0.371387204747101 0.8046875
vt 0.36583451064367345 0.8354402248905485
vt 0.32586519410342757 0.8282233883643236
vt 0.33141788820685514 0.7974706634737752
vt 0.24470120081794144 0.5991513183357023
vt 0.2122390625 0.6015625
vt 0.20757262731526735 0.4757398448231107
vt 0.2318080436827567 0.4739796707183146
vt 0.40539375 0.6638437500000001
vt 0.41256875 0.640625
vt 0.421875 0.640625
vt 0.41292265625 0.6695953125
vt 0.11957187500000001 0.75824765625
vt 0.13212265625000003 0.796875
vt 0.11907578125000001 0.796875
vt 0.10901640625000002 0.7659171874999999
vt 0.412002829747101 0.8046875
vt 0.412002829747101 0.8359375
vt 0.371387204747101 0.8359375
vt 0.371387204747101 0.8046875
vt 0.2122390625 0.6015625
vt 0.1796875 0.6015625
vt 0.1832734375 0.4757796875
vt 0.20757265625 0.47574062500000003
vt 0.41256875 0.640625
vt 0.40539375 0.6174062499999999
vt 0.41292265625 0.6116546875
vt 0.421875 0.640625
vt 0.13212265625000003 0.796875
vt 0.11957187500000001 0.83550234375
vt 0.10901640625000002 0.8278328125000001
vt 0.11907578125000001 0.796875
vt 0.053910991123347525 0.9375
vt 0.048952058711742547 0.968354035219678
vt 0.008851069136726994 0.9619089107643151
vt 0.013810001548331959 0.9310548755446371
vt 0.21672595556827146 0.74005178680473
vt 0.18424453087139345 0.7421875
vt 0.17957810776267857 0.6165620461440904
vt 0.20315459592428564 0.6149531285714223
vt 0.40539375 0.6174062499999999
vt 0.386609375 0.6030562500000001
vt 0.38948515625 0.59375
vt 0.41292265625 0.6116546875
vt 0.11957187500000001 0.83550234375
vt 0.08671406250000001 0.859375
vt 0.08268203125000002 0.84696640625
vt 0.10901640625000002 0.8278328125000001
vt 0.09452661612334753 0.9375
vt 0.09452661612334753 0.96875
vt 0.053910991123347525 0.96875
vt 0.053910991123347525 0.9375
vt 0.18424453087139345 0.7421875
vt 0.15169296837139346 0.7421875
vt 0.15635937462139343 0.6165625
vt 0.17957812462139344 0.6165625
vt 0.386609375 0.6030562500000001
vt 0.36339062499999997 0.6030562500000001
vt 0.36051484375 0.59375
vt 0.38948515625 0.59375
vt 0.08671406250000001 0.859375
vt 0.04609843750000001 0.859375
vt 0.05013046875000002 0.84696640625
vt 0.08268203125000002 0.84696640625
vt 0.13462724068762835 0.9310509673387813
vt 0.13958630198125316 0.9619049818439648
vt 0.0994853393288662 0.9683502738072889
vt 0.0945262780352414 0.9374962593021055
vt 0.15169296837139346 0.7421875
vt 0.11921154443172854 0.7400517752885329
vt 0.13278299968730245 0.6149523423002725
vt 0.15635933350383124 0.6165636069318606
vt 0.363390625 0.6030562500000001
vt 0.34460625 0.6174062499999999
vt 0.33707734375000004 0.6116546875
vt 0.36051484375000004 0.59375
vt 0.04609843749999995 0.859375
vt 0.013240624999999964 0.83550234375
vt 0.02379609374999997 0.8278328125
vt 0.050130468749999955 0.84696640625
vt 0.051074704747101025 0.6640625
vt 0.04552201064367345 0.6948152248905485
vt 0.005552694103427583 0.6875983883643236
vt 0.011105388206855152 0.6568456634737752
vt 0.16657620081794144 0.5991513183357023
vt 0.1341140625 0.6015625
vt 0.12944762731526735 0.4757398448231107
vt 0.1536830436827567 0.4739796707183146
vt 0.34460625 0.6174062499999999
vt 0.33743125 0.640625
vt 0.328125 0.640625
vt 0.33707734375000004 0.6116546875
vt 0.013240624999999964 0.83550234375
vt 0.0006898437499999882 0.796875
vt 0.013736718749999988 0.796875
vt 0.02379609374999997 0.8278328125
vt 0.09169032974710103 0.6640625
vt 0.09169032974710103 0.6953125
vt 0.051074704747101025 0.6953125
vt 0.051074704747101025 0.6640625
vt 0.1341140625 0.6015625
vt 0.1015625 0.6015625
vt 0.1051484375 0.4757796875
vt 0.12944765625 0.47574062500000003
vt 0.33743125 0.640625
vt 0.34460625 0.6638437500000001
vt 0.33707734375 0.6695953125
vt 0.328125 0.640625
vt 0.0006898437499999882 0.796875
vt 0.013240625000000006 0.75824765625
vt 0.023796093749999997 0.7659171874999999
vt 0.01373671874999998 0.796875
vt 0.18361255219911277 0.8203125
vt 0.17865361978750777 0.851166535219678
vt 0.13855263021249223 0.8447214107643151
vt 0.1435115626240972 0.8138673755446371
vt 0.32610095556827146 0.74005178680473
vt 0.2936195308713935 0.7421875
vt 0.2889531077626786 0.6165620461440904
vt 0.31252959592428564 0.6149531285714223
vt 0.34460625 0.6638437500000001
vt 0.36339062499999997 0.6781937499999999
vt 0.36051484375 0.6875
vt 0.33707734375 0.6695953125
vt 0.013240625000000006 0.75824765625
vt 0.04609843750000001 0.734375
vt 0.05013046875000001 0.74678359375
vt 0.023796093749999997 0.7659171874999999
vt 0.22422817719911275 0.8203125
vt 0.22422817719911275 0.8515625
vt 0.18361255219911277 0.8515625
vt 0.18361255219911277 0.8203125
vt 0.2936195308713935 0.7421875
vt 0.26106796837139346 0.7421875
vt 0.26573437462139343 0.6165625
vt 0.28895312462139344 0.6165625
vt 0.36339062499999997 0.6781937499999999
vt 0.386609375 0.6781937499999999
vt 0.38948515625 0.6875
vt 0.36051484375 0.6875
vt 0.04609843750000001 0.734375
vt 0.08671406250000001 0.734375
vt 0.08268203125000001 0.74678359375
vt 0.05013046875000001 0.74678359375
vt 0.25818755219911277 0.75560078125
vt 0.26484380219911274 0.8203125
vt 0.22422817719911275 0.8203125
vt 0.22870239594911276 0.75578515625
vt 0.21840552094911275 0.7558890625
vt 0.22422817719911275 0.8203125
vt 0.18361255219911277 0.8203125
vt 0.18943520844911277 0.7558890625
vt 0.18943522113649963 0.7558889221233334
vt 0.18361255219911277 0.8203125
vt 0.1435115626240972 0.8138673755446371
vt 0.16035168552397844 0.7510357201206825
vt 0.08721611099710103 0.5991640625
vt 0.09169032974710103 0.6640625
vt 0.051074704747101025 0.6640625
vt 0.05689736099710103 0.59904609375
vt 0.0568974998161084 0.599044543682026
vt 0.051074704747101025 0.6640625
vt 0.011105388206855152 0.6568456634737752
vt 0.02703982825500005 0.5937757178537091
vt 0.11778623544771838 0.868215525507352
vt 0.13462724068762835 0.9310509673387813
vt 0.0945262780352414 0.9374962593021055
vt 0.08870395987334753 0.8730765625
vt 0.08870395987334753 0.8730765625
vt 0.09452661612334753 0.9375
vt 0.053910991123347525 0.9375
vt 0.05973364737334753 0.8730765625
vt 0.059733660060734384 0.8730764221233334
vt 0.053910991123347525 0.9375
vt 0.013810001548331959 0.9310548755446371
vt 0.030650124448213217 0.8682232201206825
vt 0.407528610997101 0.7397890625
vt 0.412002829747101 0.8046875
vt 0.371387204747101 0.8046875
vt 0.377209860997101 0.73967109375
vt 0.3772099998161084 0.739669543682026
vt 0.371387204747101 0.8046875
vt 0.33141788820685514 0.7974706634737752
vt 0.34735232825500006 0.7344007178537091
vt 0.199109375 0.890625
vt 0.21789375 0.904975
vt 0.22506874999999998 0.92819375
vt 0.21789375 0.9514125
vt 0.21789375 0.9514125
vt 0.199109375 0.9657625
vt 0.175890625 0.9657625
vt 0.15710625 0.9514125
vt 0.15710625 0.9514125
vt 0.14993125000000002 0.92819375
vt 0.15710625 0.904975
vt 0.17589062500000002 0.890625
vt 0.17589062500000002 0.890625
vt 0.199109375 0.890625
vt 0.21789375 0.9514125
vt 0.15710625 0.9514125
vt 0.22422817719911275 0.8828125
vt 0.22422817719911275 0.8515625
vt 0.26484380219911274 0.8515625
vt 0.26484380219911274 0.8828125
vt 0.3203125 0.8589761132548721
vt 0.32586519410342757 0.8282233883643236
vt 0.36583451064367345 0.8354402248905485
vt 0.3602818165402459 0.866192949781097
vt 0.371387204747101 0.8671875
vt 0.371387204747101 0.8359375
vt 0.412002829747101 0.8359375
vt 0.412002829747101 0.8671875
vt 0.0038921367251220085 0.9927629459839931
vt 0.008851069136726994 0.9619089107643151
vt 0.04895205871174256 0.968354035219678
vt 0.043993126300137575 0.9992080704393561
vt 0.053910991123347525 1
vt 0.053910991123347525 0.96875
vt 0.09452661612334753 0.96875
vt 0.09452661612334753 1
vt 0.10444440062249102 0.9992042883124724
vt 0.0994853393288662 0.9683502738072889
vt 0.13958630198125316 0.9619049818439648
vt 0.144545363274878 0.9927589963491482
vt 0 0.7183511132548721
vt 0.005552694103427583 0.6875983883643236
vt 0.045522010643673456 0.6948152248905485
vt 0.03996931654024587 0.725567949781097
vt 0.051074704747101025 0.7265625
vt 0.051074704747101025 0.6953125
vt 0.09169032974710103 0.6953125
vt 0.09169032974710103 0.7265625
vt 0.13359369780088726 0.8755754459839931
vt 0.13855263021249223 0.8447214107643151
vt 0.1786536197875078 0.851166535219678
vt 0.17369468737590282 0.8820205704393561
vt 0.18361255219911277 0.8828125
vt 0.18361255219911277 0.8515625
vt 0.22422817719911275 0.8515625
vt 0.22422817719911275 0.8828125
vt 0.2960984375 1
vt 0.263240625 0.97612734375
vt 0.25068984375000003 0.9375
vt 0.263240625 0.89887265625
vt 0.263240625 0.89887265625
vt 0.2960984375 0.875
vt 0.3367140625 0.875
vt 0.369571875 0.89887265625
vt 0.369571875 0.89887265625
vt 0.38212265624999997 0.9375
vt 0.369571875 0.97612734375
vt 0.3367140625 1
vt 0.3367140625 1
vt 0.2960984375 1
vt 0.263240625 0.89887265625
vt 0.369571875 0.89887265625
vn 0.587785252292473 0 0.8090169943749476
vn -0.5844157682941264 0.10692125837803348 -0.8043792975183064
vn 0 -1 0
vn 0 1 0
vn 0.9510565162951536 0 0.3090169943749474
vn -0.9448408587506896 0.11414177619480564 -0.3069974048137124
vn 0 -1 0
vn 0 1 0
vn 0.9510565162951536 0 -0.30901699437494734
vn -0.9451383144084762 0.1113858546913263 0.3070940540156832
vn 0 -1 0
vn 0 1 0
vn 0.5877852522924732 0 -0.8090169943749476
vn -0.5846924063393051 0.1024501851136421 0.8047600571222042
vn 0 -1 0
vn 0 1 0
vn 0 0 -1
vn 0 0.0996837843649559 0.9950191672197483
vn 0 -1 0
vn 0 1 0
vn -0.5877852522924734 0 -0.8090169943749475
vn 0.5844157682941267 0.1069212583780335 0.8043792975183062
vn 0 -1 0
vn 0 1 0
vn -0.9510565162951536 0 -0.30901699437494773
vn 0.9448408587506895 0.11414177619480564 0.3069974048137126
vn 0 -1 0
vn 0 1 0
vn -0.9510565162951536 0 0.3090169943749472
vn 0.9451383144084762 0.11138585469132632 -0.30709405401568296
vn 0 -1 0
vn 0 1 0
vn -0.5877852522924734 0 0.8090169943749472
vn 0.5846924063393053 0.10245018511364208 -0.8047600571222041
vn 0 -1 0
vn 0 1 0
vn 0 0 1
vn 0 0.0996837843649559 -0.9950191672197483
vn 0 -1 0
vn 0 1 0
vn 0.567699490268275 -0.25918363637841424 0.7813713146659549
vn 0 -0.2425356250363329 0.970142500145332
vn -0.569284027912458 -0.248920824889111 0.7835522436317137
vn -0.9159052063291672 -0.2693594015952881 0.29759564141861017
vn -0.9142233490653906 -0.2756038042598104 -0.2970491728673572
vn -0.5676994902682754 -0.2591836363784142 -0.7813713146659548
vn 0 -0.24253562503633286 -0.970142500145332
vn 0.5692840279124579 -0.248920824889111 -0.7835522436317137
vn 0.9159052063291672 -0.269359401595288 -0.29759564141861033
vn 0.9142233490653908 -0.27560380425981046 0.29704917286735694
vn 0 -1 0
vn 0 -1 0
vn 0 -1 0
vn 0 -1 0
vn 0.587785252292473 0 0.8090169943749476
vn 0.9510565162951536 0 0.3090169943749474
vn 0.9510565162951536 0 -0.30901699437494734
vn 0.5877852522924732 0 -0.8090169943749476
vn 0 0 -1
vn -0.5877852522924734 0 -0.8090169943749475
vn -0.9510565162951536 0 -0.30901699437494773
vn -0.9510565162951536 0 0.3090169943749472
vn -0.5877852522924734 0 0.8090169943749472
vn 0 0 1
vn 0 1 0
vn 0 1 0
vn 0 1 0
vn 0 1 0
usemtl m_24080ae2-e419-8fce-26a8-9e84bb467533
f 41/1/1 52/2/1 51/3/1 42/4/1
f 4/5/2 8/6/2 7/7/2 3/8/2
f 3/9/3 7/10/3 5/11/3 1/12/3
f 2/13/4 6/14/4 8/15/4 4/16/4
f 50/17/5 53/18/5 52/19/5 41/20/5
f 8/21/6 12/22/6 11/23/6 7/24/6
f 7/25/7 11/26/7 9/27/7 5/28/7
f 6/29/8 10/30/8 12/31/8 8/32/8
f 49/33/9 54/34/9 53/35/9 50/36/9
f 12/37/10 16/38/10 15/39/10 11/40/10
f 11/41/11 15/42/11 13/43/11 9/44/11
f 10/45/12 14/46/12 16/47/12 12/48/12
f 48/49/13 55/50/13 54/51/13 49/52/13
f 16/53/14 20/54/14 19/55/14 15/56/14
f 15/57/15 19/58/15 17/59/15 13/60/15
f 14/61/16 18/62/16 20/63/16 16/64/16
f 47/65/17 56/66/17 55/67/17 48/68/17
f 20/69/18 24/70/18 23/71/18 19/72/18
f 19/73/19 23/74/19 21/75/19 17/76/19
f 18/77/20 22/78/20 24/79/20 20/80/20
f 46/81/21 57/82/21 56/83/21 47/84/21
f 24/85/22 28/86/22 27/87/22 23/88/22
f 23/89/23 27/90/23 25/91/23 21/92/23
f 22/93/24 26/94/24 28/95/24 24/96/24
f 45/97/25 58/98/25 57/99/25 46/100/25
f 28/101/26 32/102/26 31/103/26 27/104/26
f 27/105/27 31/106/27 29/107/27 25/108/27
f 26/109/28 30/110/28 32/111/28 28/112/28
f 44/113/29 59/114/29 58/115/29 45/116/29
f 32/117/30 36/118/30 35/119/30 31/120/30
f 31/121/31 35/122/31 33/123/31 29/124/31
f 30/125/32 34/126/32 36/127/32 32/128/32
f 43/129/33 60/130/33 59/131/33 44/132/33
f 36/133/34 40/134/34 39/135/34 35/136/34
f 35/137/35 39/138/35 37/139/35 33/140/35
f 34/141/36 38/142/36 40/143/36 36/144/36
f 42/145/37 51/146/37 60/147/37 43/148/37
f 40/149/38 4/150/38 3/151/38 39/152/38
f 39/153/39 3/154/39 1/155/39 37/156/39
f 38/157/40 2/158/40 4/159/40 40/160/40
f 5/161/41 41/162/41 42/163/41 1/164/41
f 1/165/42 42/166/42 43/167/42 37/168/42
f 37/169/43 43/170/43 44/171/43 33/172/43
f 33/173/44 44/174/44 45/175/44 29/176/44
f 29/177/45 45/178/45 46/179/45 25/180/45
f 25/181/46 46/182/46 47/183/46 21/184/46
f 21/185/47 47/186/47 48/187/47 17/188/47
f 17/189/48 48/190/48 49/191/48 13/192/48
f 13/193/49 49/194/49 50/195/49 9/196/49
f 9/197/50 50/198/50 41/199/50 5/200/50
f 19/201/51 15/202/51 11/203/51 7/204/51
f 7/205/52 3/206/52 39/207/52 35/208/52
f 35/209/53 31/210/53 27/211/53 23/212/53
f 23/213/54 19/214/54 7/215/54 35/216/54
f 2/217/55 51/218/55 52/219/55 6/220/55
f 6/221/56 52/222/56 53/223/56 10/224/56
f 10/225/57 53/226/57 54/227/57 14/228/57
f 14/229/58 54/230/58 55/231/58 18/232/58
f 18/233/59 55/234/59 56/235/59 22/236/59
f 22/237/60 56/238/60 57/239/60 26/240/60
f 26/241/61 57/242/61 58/243/61 30/244/61
f 30/245/62 58/246/62 59/247/62 34/248/62
f 34/249/63 59/250/63 60/251/63 38/252/63
f 38/253/64 60/254/64 51/255/64 2/256/64
f 56/257/65 57/258/65 58/259/65 59/260/65
f 59/261/66 60/262/66 51/263/66 52/264/66
f 52/265/67 53/266/67 54/267/67 55/268/67
f 55/269/68 56/270/68 59/271/68 52/272/68