# Made in Blockbench 5.1.4
mtllib crt_tv.mtl

o mesh
v 1.5 3 1.4062500000000004
v 1.3125 2.737499999999999 -0.15625000000000033
v 1.5 0 1.4062500000000004
v 1.3125 0 -0.15625000000000033
v -1.5 3 1.4062500000000004
v -1.3125 2.737499999999999 -0.15625000000000033
v -1.5 0 1.4062500000000004
v -1.3125 0 -0.15625000000000033
vt 0.09765625 0.62421875
vt 0 0.640625
vt 0 0.453125
vt 0.09765625 0.453125
vt 0.47265625 0.71484375
vt 0.47265625 0.90234375
vt 0.375 0.8859375
vt 0.375 0.71484375
vt 0.5 0.703125
vt 0.3125 0.703125
vt 0.32421875 0.603515625
vt 0.48828125 0.603515625
vt 0.55078125 0.90234375
vt 0.5625 1
vt 0.375 1
vt 0.38671875 0.90234375
vt 0.1875 0.8125
vt 0.1875 1
vt 0 1
vt 0 0.8125
vt 0.1640625 0.8125
vt 0 0.8125
vt 0 0.640625
vt 0.1640625 0.640625
vn 0.9928768384869222 0 -0.11914522061843062
vn -0.9928768384869222 0 -0.11914522061843062
vn 0 0.9861798660721001 -0.1656782175001134
vn 0 -1 0
vn 0 0 1
vn 0 0 -1
usemtl m_af65f703-9af3-a11b-67ce-ff34561d4680
f 2/1/1 1/2/1 3/3/1 4/4/1
f 7/5/2 5/6/2 6/7/2 8/8/2
f 5/9/3 1/10/3 2/11/3 6/12/3
f 4/13/4 3/14/4 7/15/4 8/16/4
f 3/17/5 1/18/5 5/19/5 7/20/5
f 6/21/6 2/22/6 4/23/6 8/24/6
o mesh
v 1.1875 2.25 0.5
v 1 1.9375 -1.5
v 1.1875 0.8125 0.5
v 1 0.8125 -1.4375
v -1.1875 2.25 0.5
v -1 1.9375 -1.5
v -1.1875 0.8125 0.5
v -1 0.8125 -1.4375
vt 0.598204296875 0.8828125
vt 0.47265625 0.90234375
vt 0.47265625 0.8125
vt 0.594315234375 0.8125
vt 0.59765625 0.72265625
vt 0.59765625 0.8125
vt 0.47265625 0.79296875
vt 0.4765453125 0.72265625
vt 0.3125 0.703125
vt 0.1640625 0.703125
vt 0.17578125 0.576171875
vt 0.30078125 0.576171875
vt 0.44140625 0.48046875
vt 0.453125 0.6015625
vt 0.3046875 0.6015625
vt 0.31640625 0.48046875
vt 0.59765625 0.46875
vt 0.59765625 0.55859375
vt 0.44921875 0.55859375
vt 0.44921875 0.46875
vt 0.3203125 0.48046875
vt 0.1953125 0.48046875
vt 0.1953125 0.41015625
vt 0.3203125 0.41015625
vn 0.9956342260592882 0 -0.09334070869305827
vn -0.9956342260592882 0 -0.09334070869305827
vn 0 0.9880120337511016 -0.15437688027360963
vn 0 -1 0
vn 0 0 1
vn 0 -0.05547001962252291 -0.9984603532054125
usemtl m_af65f703-9af3-a11b-67ce-ff34561d4680
f 10/25/7 9/26/7 11/27/7 12/28/7
f 15/29/8 13/30/8 14/31/8 16/32/8
f 13/33/9 9/34/9 10/35/9 14/36/9
f 12/37/10 11/38/10 15/39/10 16/40/10
f 11/41/11 9/42/11 13/43/11 15/44/11
f 14/45/12 10/46/12 12/47/12 16/48/12
o mesh
v 1.3124999999999991 2.3812499999999996 -0.14375
v 1.076644736842104 2.065760869565217 -0.625
v 1.3124999999999991 0.8250000000000005 -0.14375
v 1.076644736842104 0.8062500000000006 -0.609375
v -1.31875 2.3874999999999993 -0.14375
v -1.0953947368421046 2.0720108695652173 -0.625
v -1.31875 0.8312500000000002 -0.14375
v -1.0953947368421046 0.8125000000000002 -0.609375
vt 0.2740123743572612 0.48534880675213043
vt 0.29251541644651274 0.51953125
vt 0.1953125 0.516039138757086
vt 0.1953125 0.48339895453381365
vt 0.064453125 0.355859375
vt 0.064453125 0.453125
vt 0.03125 0.433406640625
vt 0.0321359375 0.35468750000000004
vt 0.7199220582618393 0.93359375
vt 0.5554685667381607 0.93359375
vt 0.5701626655746791 0.8976091523092226
vt 0.705915661550196 0.8976469658346551
vt 0 0.3018474583918994
vt 0.029296875 0.287109375
vt 0.029296875 0.4515628978418027
vt 0 0.4376002122493283
vt 0.09765625 0.4095341269885091
vt 0.1953125 0.4097651610754762
vt 0.1953125 0.57421875
vt 0.09765625 0.573987715913033
vt 0.6324430378642463 0.66796875
vt 0.4966897414837166 0.66796875
vt 0.49646321213575373 0.58984375
vt 0.6322165085162834 0.58984375
vn 0.8979587713904319 0 -0.4400795892596998
vn -0.9070681618360401 0 -0.4209837880291683
vn 0.001985424552483098 0.8358637365954166 -0.5489333948067784
vn -0.002373250228064919 -0.9991383460153878 0.04143589271381098
vn 0 0 1
vn -0.000035694145810852285 -0.012404654988897803 -0.9999230586702832
usemtl m_af65f703-9af3-a11b-67ce-ff34561d4680
f 18/49/13 17/50/13 19/51/13 20/52/13
f 23/53/14 21/54/14 22/55/14 24/56/14
f 21/57/15 17/58/15 18/59/15 22/60/15
f 20/61/16 19/62/16 23/63/16 24/64/16
f 19/65/17 17/66/17 21/67/17 23/68/17
f 22/69/18 18/70/18 20/71/18 24/72/18
o mesh
v 0.9500000000000002 0.8093750000000001 -0.125
v 0.8125 0.8093750000000001 -1.275
v 0.9500000000000002 -0.0031249999999999334 -0.125
v 0.8125 -0.0031249999999999334 -1.025
v -0.9500000000000002 0.8093750000000001 -0.125
v -0.8125 0.8093750000000001 -1.275
v -0.9500000000000002 -0.0031249999999999334 -0.125
v -0.8125 -0.0031249999999999334 -1.025
vt 0.627074609375 0.45703125
vt 0.5546875 0.45703125
vt 0.5546875 0.40625
vt 0.61156015625 0.40625
vt 0.166015625 0.58984375
vt 0.166015625 0.640625
vt 0.09375 0.640625
vt 0.109264453125 0.58984375
vt 0.3205078125 0.408203125
vt 0.4392578125 0.408203125
vt 0.4306640625 0.48046875
vt 0.3291015625 0.48046875
vt 0.5478515625 0.412109375
vt 0.5564453125 0.46875
vt 0.4376953125 0.46875
vt 0.4462890625 0.412109375
vt 0.619140625 0.671875
vt 0.619140625 0.72265625
vt 0.5 0.72265625
vt 0.5 0.671875
vt 0.296875 0.57421875
vt 0.1953125 0.57421875
vt 0.1953125 0.521484375
vt 0.296875 0.521484375
vn 0.9929278168066742 0 -0.11871963027036338
vn -0.9929278168066742 0 -0.11871963027036338
vn 0 1 0
vn 0 -1 0
vn 0 0 1
vn 0 -0.2940858488375231 -0.9557790087219501
usemtl m_af65f703-9af3-a11b-67ce-ff34561d4680
f 26/73/19 25/74/19 27/75/19 28/76/19
f 31/77/20 29/78/20 30/79/20 32/80/20
f 29/81/21 25/82/21 26/83/21 30/84/21
f 28/85/22 27/86/22 31/87/22 32/88/22
f 27/89/23 25/90/23 29/91/23 31/92/23
f 30/93/24 26/94/24 28/95/24 32/96/24
o mesh
v 1.5 3 1.46875
v 1.5 3 1.40625
v 1.5 0.625 1.46875
v 1.5 0.625 1.40625
v -1.5 3 1.46875
v -1.5 3 1.40625
v -1.5 0.625 1.46875
v -1.5 0.625 1.40625
vt 0.0703125 0.453125
vt 0.06640625 0.453125
vt 0.06640625 0.3046875
vt 0.0703125 0.3046875
vt 0.07421875 0.3046875
vt 0.07421875 0.453125
vt 0.0703125 0.453125
vt 0.0703125 0.3046875
vt 0.453125 0.5859375
vt 0.640625 0.5859375
vt 0.640625 0.58984375
vt 0.453125 0.58984375
vt 0.640625 0.58203125
vt 0.640625 0.5859375
vt 0.453125 0.5859375
vt 0.453125 0.58203125
vt 0.375 0.8515625
vt 0.375 1
vt 0.1875 1
vt 0.1875 0.8515625
vt 0.375 0.8515625
vt 0.1875 0.8515625
vt 0.1875 0.703125
vt 0.375 0.703125
vn 1 0 0
vn -1 0 0
vn 0 1 0
vn 0 -1 0
vn 0 0 1
vn 0 0 -1
usemtl m_af65f703-9af3-a11b-67ce-ff34561d4680
f 34/97/25 33/98/25 35/99/25 36/100/25
f 39/101/26 37/102/26 38/103/26 40/104/26
f 37/105/27 33/106/27 34/107/27 38/108/27
f 36/109/28 35/110/28 39/111/28 40/112/28
f 35/113/29 33/114/29 37/115/29 39/116/29
f 38/117/30 34/118/30 36/119/30 40/120/30