# Made in Blockbench 5.1.4
mtllib curtain.mtl

o plane
v 0.17677669529663922 3.5 -1.1553300858899096
v -0.17677669529663445 3.500000000000001 -1.5088834764831833
v 0.17677669529663456 0 -1.1553300858899116
v -0.1767766952966391 8.881784197001252e-16 -1.5088834764831853
vt 0.4375 0.9375
vt 0.4375 1
vt 0 1
vt 0 0.9375
vn -0.7071067811865477 5.495323605393215e-16 0.7071067811865474
usemtl m_d2bac792-4c93-de7b-b75b-a5d050940b24
f 1/1/1 2/2/1 4/3/1 3/4/1
o plane
v -0.1767766952966345 3.500000000000001 -0.8017766952966359
v 0.17677669529663922 3.5 -1.1553300858899096
v -0.17677669529664344 6.661338147750939e-16 -0.8017766952966396
v 0.1767766952966303 2.220446049250313e-16 -1.1553300858899134
vt 0.4375 0.8671875
vt 0.4375 0.9296875
vt 0 0.9296875
vt 0 0.8671875
vn -0.7071067811865476 2.551400245361135e-15 -0.7071067811865476
usemtl m_d2bac792-4c93-de7b-b75b-a5d050940b24
f 5/5/2 6/6/2 8/7/2 7/8/2
o plane
v 0.17677669529663917 3.4999999999999996 -0.44822330470336214
v -0.1767766952966345 3.5000000000000004 -0.801776695296636
v 0.1767766952966345 -4.440892098500626e-16 -0.448223304703364
v -0.17677669529663917 4.440892098500626e-16 -0.8017766952966379
vt 0.4375 0.796875
vt 0.4375 0.859375
vt 0 0.859375
vt 0 0.796875
vn -0.7071067811865477 5.495323605393215e-16 0.7071067811865474
usemtl m_d2bac792-4c93-de7b-b75b-a5d050940b24
f 9/9/3 10/10/3 12/11/3 11/12/3
o plane
v -0.17677669529663456 3.5 -0.09466991411008835
v 0.17677669529663917 3.499999999999999 -0.4482233047033621
v -0.1767766952966435 -2.220446049250313e-16 -0.09466991411009201
v 0.17677669529663023 -6.661338147750939e-16 -0.44822330470336574
vt 0.4375 0.7265625
vt 0.4375 0.7890625
vt 0 0.7890625
vt 0 0.7265625
vn -0.7071067811865476 2.551400245361135e-15 -0.7071067811865476
usemtl m_d2bac792-4c93-de7b-b75b-a5d050940b24
f 13/13/4 14/14/4 16/15/4 15/16/4
o plane
v 0.1767766952966391 3.499999999999999 0.25888347648318544
v -0.17677669529663456 3.5 -0.09466991411008838
v 0.17677669529663445 -8.881784197001252e-16 0.25888347648318355
v -0.17677669529663922 0 -0.09466991411009032
vt 0.4375 0.65625
vt 0.4375 0.71875
vt 0 0.71875
vt 0 0.65625
vn -0.7071067811865477 5.495323605393215e-16 0.7071067811865474
usemtl m_d2bac792-4c93-de7b-b75b-a5d050940b24
f 17/17/5 18/18/5 20/19/5 19/20/5
o plane
v -0.17677669529663462 3.499999999999999 0.6124368670764593
v 0.1767766952966391 3.499999999999999 0.2588834764831855
v -0.17677669529664355 -6.661338147750939e-16 0.6124368670764555
v 0.17677669529663018 -1.1102230246251565e-15 0.25888347648318183
vt 0.4375 0.5859375
vt 0.4375 0.6484375
vt 0 0.6484375
vt 0 0.5859375
vn -0.7071067811865476 2.551400245361135e-15 -0.7071067811865476
usemtl m_d2bac792-4c93-de7b-b75b-a5d050940b24
f 21/21/6 22/22/6 24/23/6 23/24/6
o plane
v -0.17677669529663467 3.499999999999999 1.3195436482630067
v 0.17677669529663906 3.4999999999999982 0.965990257669733
v -0.1767766952966436 -1.1102230246251565e-15 1.319543648263003
v 0.17677669529663012 -1.5543122344752192e-15 0.9659902576697292
vt 0.4375 0.515625
vt 0.4375 0.578125
vt 0 0.578125
vt 0 0.515625
vn -0.7071067811865476 2.551400245361135e-15 -0.7071067811865476
usemtl m_d2bac792-4c93-de7b-b75b-a5d050940b24
f 25/25/7 26/26/7 28/27/7 27/28/7
o plane
v 0.17677669529663906 3.4999999999999982 0.9659902576697331
v -0.17677669529663462 3.499999999999999 0.6124368670764593
v 0.1767766952966344 -1.7763568394002505e-15 0.9659902576697312
v -0.17677669529663928 -8.881784197001252e-16 0.6124368670764574
vt 0.8828125 0.9375
vt 0.8828125 1
vt 0.4453125 1
vt 0.4453125 0.9375
vn -0.7071067811865477 5.495323605393215e-16 0.7071067811865474
usemtl m_d2bac792-4c93-de7b-b75b-a5d050940b24
f 29/29/8 30/30/8 32/31/8 31/32/8
o plane
v 0.176776695296639 3.4999999999999982 1.6730970388562805
v -0.17677669529663467 3.499999999999999 1.3195436482630067
v 0.17677669529663434 -1.7763568394002505e-15 1.6730970388562785
v -0.17677669529663934 -8.881784197001252e-16 1.3195436482630047
vt 0.8828125 0.8671875
vt 0.8828125 0.9296875
vt 0.4453125 0.9296875
vt 0.4453125 0.8671875
vn -0.7071067811865477 5.495323605393215e-16 0.7071067811865474
usemtl m_d2bac792-4c93-de7b-b75b-a5d050940b24
f 33/33/9 34/34/9 36/35/9 35/36/9