# Made in Blockbench 5.1.4
mtllib curtain_bar.mtl

o cylinder
v 1.6875 -1.5265566588595902e-16 0
v -1.6875 5.967448757360216e-16 0
v 1.6875 0.008373124999999848 0.03125
v -1.6875 0.008373125000000597 0.03125
v 1.6875 0.02287687499999985 0.022876875
v -1.6875 0.022876875000000598 0.022876875
v 1.6875 0.031249999999999847 0.008373125
v -1.6875 0.0312500000000006 0.008373125
v 1.6875 0.031249999999999847 -0.008373125
v -1.6875 0.0312500000000006 -0.008373125
v 1.6875 0.02287687499999985 -0.022876875
v -1.6875 0.022876875000000598 -0.022876875
v 1.6875 0.008373124999999848 -0.03125
v -1.6875 0.008373125000000597 -0.03125
v 1.6875 -0.008373125000000153 -0.03125
v -1.6875 -0.008373124999999404 -0.03125
v 1.6875 -0.022876875000000154 -0.022876875
v -1.6875 -0.022876874999999405 -0.022876875
v 1.6875 -0.03125000000000015 -0.008373125
v -1.6875 -0.031249999999999403 -0.008373125
v 1.6875 -0.03125000000000015 0.008373125
v -1.6875 -0.031249999999999403 0.008373125
v 1.6875 -0.022876875000000154 0.022876875
v -1.6875 -0.022876874999999405 0.022876875
v 1.6875 -0.008373125000000153 0.03125
v -1.6875 -0.008373124999999404 0.03125
vt 0.1520625 0.9958125
vt 0.1448125 1
vt 0.140625 0.984375
vt 0.0510625 0.25
vt 0.0594375 0.25
vt 0.0594375 1
vt 0.0510625 1
vt 0.1448125 0.9375
vt 0.1520625 0.9416875
vt 0.140625 0.953125
vt 0.15625 0.9885625
vt 0.1520625 0.9958125
vt 0.140625 0.984375
vt 0.0030625 0.25
vt 0.0114375 0.25
vt 0.0114375 1
vt 0.0030625 1
vt 0.1520625 0.9416875
vt 0.15625 0.9489375
vt 0.140625 0.953125
vt 0.15625 0.9801875
vt 0.15625 0.9885625
vt 0.140625 0.984375
vt 0.0114375 0.25
vt 0.0198125 0.25
vt 0.0198125 1
vt 0.0114375 1
vt 0.15625 0.9489375
vt 0.15625 0.9573125
vt 0.140625 0.953125
vt 0.1520625 0.9729375
vt 0.15625 0.9801875
vt 0.140625 0.984375
vt 0.0198125 0.25
vt 0.0281875 0.25
vt 0.0281875 1
vt 0.0198125 1
vt 0.15625 0.9573125
vt 0.1520625 0.9645625
vt 0.140625 0.953125
vt 0.1448125 0.96875
vt 0.1520625 0.9729375
vt 0.140625 0.984375
vt 0.0968125 0.25
vt 0.1051875 0.25
vt 0.1051875 1
vt 0.0968125 1
vt 0.1520625 0.9645625
vt 0.1448125 0.96875
vt 0.140625 0.953125
vt 0.1364375 0.96875
vt 0.1448125 0.96875
vt 0.140625 0.984375
vt 0.1051875 0.25
vt 0.1135625 0.25
vt 0.1135625 1
vt 0.1051875 1
vt 0.1448125 0.96875
vt 0.1364375 0.96875
vt 0.140625 0.953125
vt 0.1291875 0.9729375
vt 0.1364375 0.96875
vt 0.140625 0.984375
vt 0.1135625 0.25
vt 0.1219375 0.25
vt 0.1219375 1
vt 0.1135625 1
vt 0.1364375 0.96875
vt 0.1291875 0.9645625
vt 0.140625 0.953125
vt 0.125 0.9801875
vt 0.1291875 0.9729375
vt 0.140625 0.984375
vt 0.0655625 0.25
vt 0.0739375 0.25
vt 0.0739375 1
vt 0.0655625 1
vt 0.1291875 0.9645625
vt 0.125 0.9573125
vt 0.140625 0.953125
vt 0.125 0.9885625
vt 0.125 0.9801875
vt 0.140625 0.984375
vt 0.0739375 0.25
vt 0.0823125 0.25
vt 0.0823125 1
vt 0.0739375 1
vt 0.125 0.9573125
vt 0.125 0.9489375
vt 0.140625 0.953125
vt 0.1291875 0.9958125
vt 0.125 0.9885625
vt 0.140625 0.984375
vt 0.0823125 0.25
vt 0.0906875 0.25
vt 0.0906875 1
vt 0.0823125 1
vt 0.125 0.9489375
vt 0.1291875 0.9416875
vt 0.140625 0.953125
vt 0.1364375 1
vt 0.1291875 0.9958125
vt 0.140625 0.984375
vt 0.0343125 0.25
vt 0.0426875 0.25
vt 0.0426875 1
vt 0.0343125 1
vt 0.1291875 0.9416875
vt 0.1364375 0.9375
vt 0.140625 0.953125
vt 0.1448125 1
vt 0.1364375 1
vt 0.140625 0.984375
vt 0.0426875 0.25
vt 0.0510625 0.25
vt 0.0510625 1
vt 0.0426875 1
vt 0.1364375 0.9375
vt 0.1448125 0.9375
vt 0.140625 0.953125
vn 1 -2.220446049250313e-16 0
vn 1.1101614741826204e-16 0.49997228014499295 0.8660414072586928
vn -1 2.220446049250313e-16 0
vn 1 -2.220446049250313e-16 0
vn 1.922998221234746e-16 0.8660414072586928 0.49997228014499295
vn -1 2.220446049250313e-16 0
vn 1 -2.220446049250313e-16 0
vn 2.220446049250313e-16 1 0
vn -1 2.220446049250313e-16 0
vn 1 -2.220446049250313e-16 0
vn 1.922998221234746e-16 0.8660414072586928 -0.49997228014499295
vn -1 2.220446049250313e-16 0
vn 1 -2.220446049250313e-16 0
vn 1.1101614741826204e-16 0.49997228014499295 -0.8660414072586928
vn -1 2.220446049250313e-16 0
vn 1 -2.220446049250313e-16 0
vn 0 0 -1
vn -1 2.220446049250313e-16 0
vn 1 -2.220446049250313e-16 0
vn -1.1101614741826204e-16 -0.49997228014499295 -0.8660414072586928
vn -1 2.220446049250313e-16 0
vn 1 -2.220446049250313e-16 0
vn -1.922998221234746e-16 -0.8660414072586928 -0.49997228014499295
vn -1 2.220446049250313e-16 0
vn 1 -2.220446049250313e-16 0
vn -2.220446049250313e-16 -1 0
vn -1 2.220446049250313e-16 0
vn 1 -2.220446049250313e-16 0
vn -1.922998221234746e-16 -0.8660414072586928 0.49997228014499295
vn -1 2.220446049250313e-16 0
vn 1 -2.220446049250313e-16 0
vn -1.1101614741826204e-16 -0.49997228014499295 0.8660414072586928
vn -1 2.220446049250313e-16 0
vn 1 -2.220446049250313e-16 0
vn 0 0 1
vn -1 2.220446049250313e-16 0
usemtl m_ef9846fa-9c87-4765-f1f8-216e0bc1912d
f 5/1/1 3/2/1 1/3/1
f 3/4/2 5/5/2 6/6/2 4/7/2
f 4/8/3 6/9/3 2/10/3
f 7/11/4 5/12/4 1/13/4
f 5/14/5 7/15/5 8/16/5 6/17/5
f 6/18/6 8/19/6 2/20/6
f 9/21/7 7/22/7 1/23/7
f 7/24/8 9/25/8 10/26/8 8/27/8
f 8/28/9 10/29/9 2/30/9
f 11/31/10 9/32/10 1/33/10
f 9/34/11 11/35/11 12/36/11 10/37/11
f 10/38/12 12/39/12 2/40/12
f 13/41/13 11/42/13 1/43/13
f 11/44/14 13/45/14 14/46/14 12/47/14
f 12/48/15 14/49/15 2/50/15
f 15/51/16 13/52/16 1/53/16
f 13/54/17 15/55/17 16/56/17 14/57/17
f 14/58/18 16/59/18 2/60/18
f 17/61/19 15/62/19 1/63/19
f 15/64/20 17/65/20 18/66/20 16/67/20
f 16/68/21 18/69/21 2/70/21
f 19/71/22 17/72/22 1/73/22
f 17/74/23 19/75/23 20/76/23 18/77/23
f 18/78/24 20/79/24 2/80/24
f 21/81/25 19/82/25 1/83/25
f 19/84/26 21/85/26 22/86/26 20/87/26
f 20/88/27 22/89/27 2/90/27
f 23/91/28 21/92/28 1/93/28
f 21/94/29 23/95/29 24/96/29 22/97/29
f 22/98/30 24/99/30 2/100/30
f 25/101/31 23/102/31 1/103/31
f 23/104/32 25/105/32 26/106/32 24/107/32
f 24/108/33 26/109/33 2/110/33
f 3/111/34 25/112/34 1/113/34
f 25/114/35 3/115/35 4/116/35 26/117/35
f 26/118/36 4/119/36 2/120/36