# Made in Blockbench 5.1.6
mtllib door.mtl

o mesh
v 0.325 0.8500000000000001 0.00625
v 0.325 0.8500000000000001 -0.00625
v 0.325 5.551115123125783e-17 0.00625
v 0.325 5.551115123125783e-17 -0.00625
v -0.325 0.8500000000000001 0.00625
v -0.325 0.8500000000000001 -0.00625
v -0.325 5.551115123125783e-17 0.00625
v -0.325 5.551115123125783e-17 -0.00625
vt 0.015625 0.53125
vt 0 0.53125
vt 0 0.109375
vt 0.015625 0.109375
vt 0.078125 0.109375
vt 0.078125 0.53125
vt 0.0625 0.53125
vt 0.0625 0.109375
vt 0.125 0.515625
vt 0.453125 0.515625
vt 0.453125 0.53125
vt 0.125 0.53125
vt 0.828125 0.515625
vt 0.828125 0.53125
vt 0.5 0.53125
vt 0.5 0.515625
vt 0.328125 0.578125
vt 0.328125 1
vt 0 1
vt 0 0.578125
vt 0.703125 1
vt 0.375 1
vt 0.375 0.578125
vt 0.703125 0.578125
vn 1 0 0
vn -1 0 0
vn 0 1 0
vn 0 -1 0
vn 0 0 1
vn 0 0 -1
usemtl m_9bccb3ed-cb5b-1cf9-bfac-95e7029c4cba
f 2/1/1 1/2/1 3/3/1 4/4/1
f 7/5/2 5/6/2 6/7/2 8/8/2
f 5/9/3 1/10/3 2/11/3 6/12/3
f 4/13/4 3/14/4 7/15/4 8/16/4
f 3/17/5 1/18/5 5/19/5 7/20/5
f 6/21/6 2/22/6 4/23/6 8/24/6