# Made in Blockbench 5.1.4
mtllib npc.mtl

o cylinder
v 0.3356646199531726 0.11973860589812291 1.6875000000000002
v 0.17404832145720073 4.945475871313674 0.875
v 0.9558919642790044 0.11973860589812291 1.4305934222255927
v 0.49564768518170643 4.945475871313674 0.741789181894752
v 1.430593422225592 0.11973860589812291 0.955891964279005
v 0.741789181894752 4.945475871313674 0.4956476851817066
v 1.6875 0.11973860589812291 0.33566461995317287
v 0.875 4.945475871313674 0.1740483214572008
v 1.6875 0.11973860589812291 -0.3356646199531726
v 0.875 4.945475871313674 -0.1740483214572007
v 1.4305934222255925 0.11973860589812291 -0.9558919642790042
v 0.7417891818947523 4.945475871313674 -0.4956476851817062
v 0.9558919642790044 0.11973860589812291 -1.430593422225593
v 0.49564768518170643 4.945475871313674 -0.7417891818947521
v 0.3517360485246018 0.11973860589812291 -1.6875000000000002
v 0.1740483214572011 4.945475871313674 -0.875
v -0.33630050418365365 0.11973860589812291 -1.6875000000000002
v -0.17404832145720084 4.945475871313674 -0.875
v -0.9719633928504328 0.11973860589812291 -1.4305934222255932
v -0.4956476851817062 4.945475871313674 -0.7417891818947523
v -1.430593422225592 0.11973860589812291 -0.9558919642790048
v -0.741789181894752 4.945475871313674 -0.49564768518170643
v -1.6874999999999973 0.11973860589812291 -0.3356646199531734
v -0.8749999999999999 4.945475871313674 -0.17404832145720114
v -1.6875 0.11973860589812291 0.3356646199531727
v -0.875 4.945475871313674 0.17404832145720078
v -1.4305934222255925 0.11973860589812291 0.9558919642790041
v -0.7417891818947523 4.945475871313674 0.4956476851817061
v -0.9558919642790044 0.11973860589812291 1.4305934222255927
v -0.49564768518170643 4.945475871313674 0.741789181894752
v -0.33566461995317337 0.11973860589812291 1.687499999999998
v -0.1740483214572012 4.945475871313674 0.8749999999999999
v -0.8648546343476706 0.012500000000000844 1.2943464296326774
v -1.294346429632678 0.012500000000000844 0.8648546343476704
v 0.007717772170473828 0.012500000000000844 0
v -1.526785714285713 0.012500000000000844 0.3036965609100133
v -1.5267857142857115 0.012500000000000844 -0.30369656091001423
v -1.2943464296326777 0.012500000000000844 -0.8648546343476707
v -0.8786604247532033 0.012500000000000844 -1.2943464296326799
v -0.30353685881659376 0.012500000000000844 -1.5267857142857124
v 0.3189724031575418 0.012500000000000844 -1.5267857142857124
v 0.8648546343476706 0.012500000000000844 -1.2943464296326797
v 1.294346429632678 0.012500000000000844 -0.8648546343476705
v 1.526785714285713 0.012500000000000844 -0.30369656091001324
v 1.526785714285713 0.012500000000000844 0.3036965609100134
v 1.2943464296326777 0.012500000000000844 0.864854634347671
v 0.8648546343476706 0.012500000000000844 1.2943464296326774
v 0.30369656091001324 0.012500000000000844 1.5267857142857124
v -0.30369656091001385 0.012500000000000844 1.5267857142857122
v -0.6888042403308411 5.012500000000001 -0.4602442790972988
v -0.8124999999999998 5.012500000000001 -0.16161629849597245
v 0 5.012500000000001 0
v -0.4602442790972986 5.012500000000001 -0.6888042403308413
v -0.1616162984959722 5.012500000000001 -0.8125
v 0.16161629849597245 5.012500000000001 -0.8125
v 0.46024427909729876 5.012500000000001 -0.6888042403308412
v 0.6888042403308413 5.012500000000001 -0.4602442790972986
v 0.8125 5.012500000000001 -0.16161629849597203
v 0.8125 5.012500000000001 0.16161629849597214
v 0.6888042403308411 5.012500000000001 0.4602442790972989
v 0.46024427909729876 5.012500000000001 0.6888042403308411
v 0.1616162984959721 5.012500000000001 0.8125
v -0.16161629849597253 5.012500000000001 0.8124999999999998
v -0.46024427909729876 5.012500000000001 0.6888042403308411
v -0.6888042403308413 5.012500000000001 0.4602442790972985
v -0.8125 5.012500000000001 0.16161629849597212
vt 0.5205574633601062 0.96964609375
vt 0.4854848071101062 0.984173828125
vt 0.4669863696101062 0.888749609375
vt 0.12644765624999998 0.683036979171022
vt 0.16831404639403402 0.6858052649389096
vt 0.13805572005885858 0.9903259251401947
vt 0.116346875 0.9888904947960221
vt 0.236663671875 0.8984375
vt 0.255327734375 0.9061683593750001
vt 0.2265625 0.94921875
vt 0.5474004321101062 0.942803125
vt 0.5205574633601062 0.96964609375
vt 0.4669863696101062 0.888749609375
vt 0.16831404639403402 0.6858052649389096
vt 0.2099065678725972 0.6913297727758496
vt 0.15962255687662624 0.9931905304774588
vt 0.13805572005885858 0.9903259251401946
vt 0.255327734375 0.9061683593750001
vt 0.269612890625 0.920453515625
vt 0.2265625 0.94921875
vt 0.5619281664851062 0.90773046875
vt 0.5474004321101062 0.942803125
vt 0.4669863696101062 0.888749609375
vt 0.349264078605966 0.3733052649389096
vt 0.39113046875 0.370536979171022
vt 0.40123125 0.6763904947960221
vt 0.3795224049411414 0.6778259251401947
vt 0.269612890625 0.920453515625
vt 0.27734375 0.939117578125
vt 0.2265625 0.94921875
vt 0.5619281664851062 0.86976875
vt 0.5619281664851062 0.90773046875
vt 0.4669863696101062 0.888749609375
vt 0.39113046875 0.370536979171022
vt 0.43308828125 0.370536979171022
vt 0.4229875 0.676390494796022
vt 0.40123125 0.676390494796022
vt 0.27734375 0.939117578125
vt 0.27734375 0.959319921875
vt 0.2265625 0.94921875
vt 0.5474004321101062 0.83469609375
vt 0.5619281664851062 0.86976875
vt 0.4669863696101062 0.888749609375
vt 0.43308828125 0.370536979171022
vt 0.474954671394034 0.3733052649389096
vt 0.4446963450588586 0.6778259251401947
vt 0.4229875 0.6763904947960221
vt 0.27734375 0.959319921875
vt 0.269612890625 0.977983984375
vt 0.2265625 0.94921875
vt 0.5205574633601062 0.8078531250000001
vt 0.5474004321101062 0.83469609375
vt 0.4669863696101062 0.888749609375
vt 0.18929105127208562 0.5272908666753726
vt 0.23088216630720942 0.5217557804140526
vt 0.2612179431639985 0.8262687348914074
vt 0.23965183562483847 0.829138825425151
vt 0.269612890625 0.977983984375
vt 0.255327734375 0.992269140625
vt 0.2265625 0.94921875
vt 0.48643988523510623 0.793325390625
vt 0.5205574633601062 0.8078531250000001
vt 0.4669863696101062 0.888749609375
vt 0.23088216630720942 0.5217557804140526
vt 0.27181982564303975 0.518974479171022
vt 0.2829253049227859 0.8248282847936756
vt 0.26121793248224034 0.8262686276670648
vt 0.255327734375 0.992269140625
vt 0.23666367187499998 1
vt 0.2265625 0.94921875
vt 0.4475328539851062 0.793325390625
vt 0.48643988523510623 0.793325390625
vt 0.4669863696101062 0.888749609375
vt 0.27181982564303975 0.518974479171022
vt 0.31482216939303975 0.518974479171022
vt 0.30468154439303974 0.824827994796022
vt 0.2829252943930397 0.824827994796022
vt 0.23666367187499998 1
vt 0.21646132812499996 1
vt 0.2265625 0.94921875
vt 0.41158754148510623 0.8078531250000001
vt 0.4475328539851062 0.793325390625
vt 0.4669863696101062 0.888749609375
vt 0.31482216939303975 0.518974479171022
vt 0.3575839487279144 0.5217409135505577
vt 0.3263896054894155 0.8262638667691204
vt 0.30468153865629805 0.8248281678230894
vt 0.21646132812500002 1
vt 0.19779726562500002 0.992269140625
vt 0.2265625 0.94921875
vt 0.3856074633601062 0.83469609375
vt 0.41158754148510623 0.8078531250000001
vt 0.4669863696101062 0.888749609375
vt 0.0006840176448502239 0.36690127788676885
vt 0.041594139567081787 0.3615865149389096
vt 0.07185247367807042 0.666107253396201
vt 0.0502890649344699 0.668971649038517
vt 0.19779726562500002 0.992269140625
vt 0.183512109375 0.977983984375
vt 0.2265625 0.94921875
vt 0.3710797289851062 0.86976875
vt 0.3856074633601062 0.83469609375
vt 0.4669863696101062 0.888749609375
vt 0.041594139567081787 0.3615865149389096
vt 0.08346052971111578 0.358818229171022
vt 0.09356131096111578 0.6646717447960221
vt 0.07185246590225719 0.6661071751401947
vt 0.183512109375 0.977983984375
vt 0.17578125 0.959319921875
vt 0.2265625 0.94921875
vt 0.3710797289851062 0.90773046875
vt 0.3710797289851062 0.86976875
vt 0.4669863696101062 0.888749609375
vt 0.08346052971111578 0.358818229171022
vt 0.12541834221111578 0.358818229171022
vt 0.11531756096111578 0.664671744796022
vt 0.09356131096111578 0.664671744796022
vt 0.17578125 0.959319921875
vt 0.17578125 0.939117578125
vt 0.2265625 0.94921875
vt 0.3856074633601062 0.942803125
vt 0.3710797289851062 0.90773046875
vt 0.4669863696101062 0.888749609375
vt 0.12541834221111578 0.358818229171022
vt 0.1672847323551498 0.3615865149389096
vt 0.13702640601997434 0.6661071751401947
vt 0.11531756096111578 0.6646717447960221
vt 0.17578125 0.939117578125
vt 0.183512109375 0.920453515625
vt 0.2265625 0.94921875
vt 0.41245043211010624 0.96964609375
vt 0.3856074633601062 0.942803125
vt 0.4669863696101062 0.888749609375
vt 0.001030932127402781 0.6913297727758496
vt 0.042623453605966005 0.6858052649389096
vt 0.07288177994114141 0.9903259251401946
vt 0.05131494312337376 0.9931905304774588
vt 0.183512109375 0.920453515625
vt 0.197797265625 0.9061683593750001
vt 0.2265625 0.94921875
vt 0.44752308836010624 0.984173828125
vt 0.41245043211010624 0.96964609375
vt 0.4669863696101062 0.888749609375
vt 0.042623453605966005 0.6858052649389096
vt 0.08448984375 0.683036979171022
vt 0.094590625 0.9888904947960221
vt 0.07288177994114141 0.9903259251401947
vt 0.197797265625 0.9061683593750001
vt 0.21646132812500002 0.8984375
vt 0.2265625 0.94921875
vt 0.4854848071101062 0.984173828125
vt 0.44752308836010624 0.984173828125
vt 0.4669863696101062 0.888749609375
vt 0.08448984375 0.683036979171022
vt 0.12644765624999998 0.683036979171022
vt 0.116346875 0.988890494796022
vt 0.094590625 0.988890494796022
vt 0.21646132812500002 0.8984375
vt 0.236663671875 0.8984375
vt 0.2265625 0.94921875
vt 0.3794297648604309 0.9555954398055901
vt 0.41094899438335675 0.9767527142220934
vt 0.40587795278071837 0.9878923635489505
vt 0.3710408072031782 0.9645079388651052
vt 0.356405404729959 0.9254131448127233
vt 0.3794297648604309 0.9555954398055901
vt 0.3710408072031782 0.9645079388651052
vt 0.3455927554000228 0.931148462112478
vt 0.3443302051027352 0.8894231233565364
vt 0.35640540472995896 0.9254131448127233
vt 0.3455927554000228 0.931148462112478
vt 0.3322464428898938 0.8913699003968111
vt 0.3444913268352709 0.8514617465342792
vt 0.3443302051027352 0.8894231233565364
vt 0.3322464428898938 0.8913699003968111
vt 0.33242452532836103 0.849412465818059
vt 0.3561928127487295 0.815984669269789
vt 0.3444913268352709 0.8514617465342792
vt 0.3324244193700213 0.8494124478233664
vt 0.34531797388380303 0.810225180279207
vt 0.4475326900006903 0.7933254569012923
vt 0.41158754148510623 0.8078531250000001
vt 0.4049970312208292 0.7974603959975167
vt 0.44472607019284005 0.7814034226394635
vt 0.48643988523510623 0.793325390625
vt 0.4475328539851062 0.793325390625
vt 0.4454851977351062 0.78125
vt 0.4884875414851062 0.78125
vt 0.5205572632321187 0.8078530397827483
vt 0.48643988523510623 0.793325390625
vt 0.48928336129513006 0.7814120546120747
vt 0.5270414085035575 0.7974721191371741
vt 0.5474004521137277 0.8346961137536215
vt 0.5205574633601062 0.8078531250000001
vt 0.5276832214620791 0.797901701909145
vt 0.5573518752045827 0.8275703556516486
vt 0.5619278933361981 0.8697680905676678
vt 0.5474004321101062 0.83469609375
vt 0.5577919930313993 0.828229045607293
vt 0.5738487079088146 0.8669929455288765
vt 0.5619281664851062 0.90773046875
vt 0.5619281664851062 0.86976875
vt 0.5740035571101062 0.8677707031249999
vt 0.5740035571101062 0.909728515625
vt 0.5474007052590144 0.9428024655676678
vt 0.5619281664851062 0.90773046875
vt 0.5738489810577228 0.9105056137887912
vt 0.5577922661803074 0.9492695137103747
vt 0.5205574433564847 0.9696461137536215
vt 0.5474004321101062 0.942803125
vt 0.5573518552009613 0.9499288831019729
vt 0.5276832014584576 0.9795975368444766
vt 0.4854854665424384 0.9841735549760918
vt 0.5205574633601062 0.96964609375
vt 0.5270245115028132 0.9800376546712931
vt 0.4882606115812297 0.9960943695487084
vt 0.4476032881011614 0.9866296997188433
vt 0.4854854665424384 0.9841735549760918
vt 0.4882606115812297 0.9960943695487084
vt 0.4463907123124921 0.998809063824484
vt 0.41094899438335675 0.9767527142220934
vt 0.4476032881011614 0.9866296997188433
vt 0.4463907123124921 0.998809063824484
vt 0.40587795278071837 0.9878923635489505
vt 0.09433826408611579 0.670399479171022
vt 0.07486594435431378 0.67578125
vt 0.07259123632979894 0.6704674659780236
vt 0.09356131096111578 0.664671744796022
vt 0.022660546875 0.9765625
vt 0.002458203124999999 0.9765625
vt 0.0016812499999999987 0.97265625
vt 0.0234375 0.97265625
vt 0.3233769109998417 0.8359375
vt 0.3039045912680397 0.830555729171022
vt 0.30468154439303974 0.824827994796022
vt 0.3256516190243566 0.8306237159780236
vt 0.3039045912680397 0.830555729171022
vt 0.28370224751803974 0.830555729171022
vt 0.2829252943930397 0.824827994796022
vt 0.30468154439303974 0.824827994796022
vt 0.28370224751803974 0.830555729171022
vt 0.2642299277862377 0.8359375
vt 0.26195521976172287 0.8306237159780236
vt 0.2829252943930397 0.824827994796022
vt 0.020979296875 1
vt 0.0007769531250000003 1
vt 0 0.99609375
vt 0.02175625 0.99609375
vt 0.441682866606802 0.6875
vt 0.422210546875 0.682118229171022
vt 0.4229875 0.676390494796022
vt 0.44395757463131685 0.6821862159780236
vt 0.422210546875 0.682118229171022
vt 0.402008203125 0.682118229171022
vt 0.40123125 0.676390494796022
vt 0.4229875 0.676390494796022
vt 0.402008203125 0.682118229171022
vt 0.382535883393198 0.6875
vt 0.38026117536868315 0.6821862159780236
vt 0.40123125 0.676390494796022
vt 0.022660546875 0.984375
vt 0.002458203124999999 0.984375
vt 0.0016812499999999987 0.98046875
vt 0.0234375 0.98046875
vt 0.135042241606802 1
vt 0.115569921875 0.994618229171022
vt 0.116346875 0.988890494796022
vt 0.13731694963131685 0.9946862159780236
vt 0.115569921875 0.994618229171022
vt 0.095367578125 0.994618229171022
vt 0.094590625 0.988890494796022
vt 0.116346875 0.988890494796022
vt 0.095367578125 0.994618229171022
vt 0.07589525839319801 1
vt 0.07362055036868316 0.9946862159780236
vt 0.094590625 0.988890494796022
vt 0.020979296875 0.9921875
vt 0.0007769531250000003 0.9921875
vt 0 0.98828125
vt 0.02175625 0.98828125
vt 0.13401292756791777 0.67578125
vt 0.11454060783611578 0.670399479171022
vt 0.11531756096111578 0.664671744796022
vt 0.13628763559243262 0.6704674659780236
vt 0.11454060783611578 0.670399479171022
vt 0.09433826408611579 0.670399479171022
vt 0.09356131096111578 0.664671744796022
vt 0.11531756096111578 0.664671744796022
vn 0 -1 0
vn 0.37737197824148866 0.16603119138185318 0.9110565479301646
vn 0 1 0
vn 0 -1 0
vn 0.6972924936812107 0.16603119138185307 0.6972924936812107
vn 0 1 0
vn 0 -1 0
vn 0.9110565479301643 0.1660311913818532 0.3773719782414889
vn 0 1 0
vn 0 -1 0
vn 0.9861205015049238 0.1660311913818533 0
vn 0 1 0
vn 0 -1 0
vn 0.9110565479301646 0.1660311913818531 -0.37737197824148866
vn 0 1 0
vn 0 -1 0
vn 0.697292493681211 0.16603119138185313 -0.6972924936812103
vn 0 1 0
vn 0 -1 0
vn 0.3858280964816906 0.16697274465178422 -0.9073349891350853
vn 0 1 0
vn 0 -1 0
vn 0 0.16603119138185332 -0.9861205015049238
vn 0 1 0
vn 0 -1 0
vn -0.3694509405282637 0.1669449684664578 -0.9141309425057851
vn 0 1 0
vn 0 -1 0
vn -0.7091301839183605 0.1665601129274624 -0.6851219680009563
vn 0 1 0
vn 0 -1 0
vn -0.9110565479301657 0.16603119138185288 -0.37737197824148605
vn 0 1 0
vn 0 -1 0
vn -0.986120501504924 0.16603119138185315 -3.913955611926231e-15
vn 0 1 0
vn 0 -1 0
vn -0.9110565479301646 0.1660311913818531 0.37737197824148877
vn 0 1 0
vn 0 -1 0
vn -0.697292493681211 0.1660311913818531 0.6972924936812104
vn 0 1 0
vn 0 -1 0
vn -0.37737197824148616 0.166031191381853 0.9110565479301654
vn 0 1 0
vn 0 -1 0
vn -3.2616296766051937e-15 0.1660311913818532 0.9861205015049238
vn 0 1 0
vn -0.3924748381363032 -0.8318214969930537 0.39247483813630357
vn -0.5127930881547456 -0.8318214969930532 0.21240585180487787
vn -0.5550432389825456 -0.8318214969930536 -1.4203494672910493e-15
vn -0.5127930881547472 -0.8318214969930522 -0.2124058518048778
vn -0.3979743335095799 -0.8326172722905925 -0.3851816555224029
vn -0.20747274314637337 -0.832723190064981 -0.513348954980256
vn 0 -0.8318214969930553 -0.5550432389825432
vn 0.2174584258476792 -0.8318038058577568 -0.5106997763739481
vn 0.39247483813630685 -0.8318214969930515 -0.3924748381363053
vn 0.5127930881547457 -0.831821496993053 -0.2124058518048778
vn 0.5550432389825455 -0.831821496993054 0
vn 0.5127930881547444 -0.8318214969930539 0.21240585180487764
vn 0.39247483813630396 -0.8318214969930532 0.39247483813630446
vn 0.21240585180487698 -0.8318214969930544 0.5127930881547437
vn -2.0290706675586353e-16 -0.8318214969930554 0.5550432389825433
vn -0.21240585180487823 -0.8318214969930522 0.5127930881547466
vn -0.6756878002744571 0.6819924585224332 -0.2798790508037227
vn -0.5171490532324925 0.6819924585224337 -0.5171490532324925
vn -0.27987905080372266 0.6819924585224332 -0.6756878002744571
vn 0 0.6819924585224331 -0.7313592048497971
vn 0.27987905080372283 0.6819924585224333 -0.6756878002744567
vn 0.5171490532324925 0.6819924585224336 -0.5171490532324924
vn 0.675687800274457 0.6819924585224334 -0.2798790508037225
vn 0.7313592048497971 0.6819924585224331 0
vn 0.6756878002744569 0.6819924585224334 0.2798790508037228
vn 0.5171490532324925 0.6819924585224335 0.5171490532324928
vn 0.2798790508037229 0.6819924585224331 0.675687800274457
vn -5.024071433711408e-16 0.6819924585224337 0.7313592048497964
vn -0.2798790508037228 0.6819924585224333 0.675687800274457
vn -0.5171490532324925 0.6819924585224336 0.5171490532324924
vn -0.6756878002744571 0.6819924585224332 0.2798790508037227
vn -0.7313592048497964 0.6819924585224338 -5.024071433711409e-16
usemtl m_0a74f538-b92f-afdd-773a-94ea76f324f1
f 47/1/1 48/2/1 35/3/1
f 1/4/2 3/5/2 4/6/2 2/7/2
f 62/8/3 61/9/3 52/10/3
f 46/11/4 47/12/4 35/13/4
f 3/14/5 5/15/5 6/16/5 4/17/5
f 61/18/6 60/19/6 52/20/6
f 45/21/7 46/22/7 35/23/7
f 5/24/8 7/25/8 8/26/8 6/27/8
f 60/28/9 59/29/9 52/30/9
f 44/31/10 45/32/10 35/33/10
f 7/34/11 9/35/11 10/36/11 8/37/11
f 59/38/12 58/39/12 52/40/12
f 43/41/13 44/42/13 35/43/13
f 9/44/14 11/45/14 12/46/14 10/47/14
f 58/48/15 57/49/15 52/50/15
f 42/51/16 43/52/16 35/53/16
f 11/54/17 13/55/17 14/56/17 12/57/17
f 57/58/18 56/59/18 52/60/18
f 41/61/19 42/62/19 35/63/19
f 13/64/20 15/65/20 16/66/20 14/67/20
f 56/68/21 55/69/21 52/70/21
f 40/71/22 41/72/22 35/73/22
f 15/74/23 17/75/23 18/76/23 16/77/23
f 55/78/24 54/79/24 52/80/24
f 39/81/25 40/82/25 35/83/25
f 17/84/26 19/85/26 20/86/26 18/87/26
f 54/88/27 53/89/27 52/90/27
f 38/91/28 39/92/28 35/93/28
f 19/94/29 21/95/29 22/96/29 20/97/29
f 53/98/30 50/99/30 52/100/30
f 37/101/31 38/102/31 35/103/31
f 21/104/32 23/105/32 24/106/32 22/107/32
f 50/108/33 51/109/33 52/110/33
f 36/111/34 37/112/34 35/113/34
f 23/114/35 25/115/35 26/116/35 24/117/35
f 51/118/36 66/119/36 52/120/36
f 34/121/37 36/122/37 35/123/37
f 25/124/38 27/125/38 28/126/38 26/127/38
f 66/128/39 65/129/39 52/130/39
f 33/131/40 34/132/40 35/133/40
f 27/134/41 29/135/41 30/136/41 28/137/41
f 65/138/42 64/139/42 52/140/42
f 49/141/43 33/142/43 35/143/43
f 29/144/44 31/145/44 32/146/44 30/147/44
f 64/148/45 63/149/45 52/150/45
f 48/151/46 49/152/46 35/153/46
f 31/154/47 1/155/47 2/156/47 32/157/47
f 63/158/48 62/159/48 52/160/48
f 34/161/49 33/162/49 29/163/49 27/164/49
f 36/165/50 34/166/50 27/167/50 25/168/50
f 37/169/51 36/170/51 25/171/51 23/172/51
f 38/173/52 37/174/52 23/175/52 21/176/52
f 39/177/53 38/178/53 21/179/53 19/180/53
f 40/181/54 39/182/54 19/183/54 17/184/54
f 41/185/55 40/186/55 17/187/55 15/188/55
f 42/189/56 41/190/56 15/191/56 13/192/56
f 43/193/57 42/194/57 13/195/57 11/196/57
f 44/197/58 43/198/58 11/199/58 9/200/58
f 45/201/59 44/202/59 9/203/59 7/204/59
f 46/205/60 45/206/60 7/207/60 5/208/60
f 47/209/61 46/210/61 5/211/61 3/212/61
f 48/213/62 47/214/62 3/215/62 1/216/62
f 49/217/63 48/218/63 1/219/63 31/220/63
f 33/221/64 49/222/64 31/223/64 29/224/64
f 51/225/65 50/226/65 22/227/65 24/228/65
f 50/229/66 53/230/66 20/231/66 22/232/66
f 53/233/67 54/234/67 18/235/67 20/236/67
f 54/237/68 55/238/68 16/239/68 18/240/68
f 55/241/69 56/242/69 14/243/69 16/244/69
f 56/245/70 57/246/70 12/247/70 14/248/70
f 57/249/71 58/250/71 10/251/71 12/252/71
f 58/253/72 59/254/72 8/255/72 10/256/72
f 59/257/73 60/258/73 6/259/73 8/260/73
f 60/261/74 61/262/74 4/263/74 6/264/74
f 61/265/75 62/266/75 2/267/75 4/268/75
f 62/269/76 63/270/76 32/271/76 2/272/76
f 63/273/77 64/274/77 30/275/77 32/276/77
f 64/277/78 65/278/78 28/279/78 30/280/78
f 65/281/79 66/282/79 26/283/79 28/284/79
f 66/285/80 51/286/80 24/287/80 26/288/80
o mesh
v 1.556818050660793 7.315490625 1.2138027385097492
v 1.556818050660793 7.315490625 -1.214297251044568
v 1.556818050660793 4.9351075 1.2138027385097492
v 1.556818050660793 4.9351075 -1.214297251044568
v -1.5557852312775333 7.315490625 1.2138027385097492
v -1.5557852312775333 7.315490625 -1.214297251044568
v -1.5557852312775333 4.9351075 1.2138027385097492
v -1.5557852312775333 4.9351075 -1.214297251044568
v 1.4214876927312774 7.19647125 1.2812500000000002
v -1.4204548733480178 7.19647125 1.2812500000000002
v 1.4214876927312774 5.054126875 1.2812500000000002
v -1.4204548733480178 5.054126875 1.2812500000000002
v 1.4214876927312774 7.19647125 -1.2750000000000001
v 1.4214876927312774 5.054126875 -1.2750000000000001
v -1.4204548733480178 7.19647125 -1.2750000000000001
v -1.4204548733480178 5.054126875 -1.2750000000000001
v 1.4553204625550655 4.8875 1.078908215529248
v -1.454286921806167 4.8875 1.078908215529248
v 1.4553204625550655 4.8875 -1.0794027280640668
v -1.454286921806167 4.8875 -1.0794027280640668
v -1.6437500000000005 7.19647125 1.078908215529248
v -1.6437500000000005 7.19647125 -1.0794027280640668
v -1.6437500000000005 5.054126875 1.078908215529248
v -1.6437500000000005 5.054126875 -1.0794027280640668
v 1.6312500000000003 7.19647125 1.078908215529248
v 1.6312500000000003 5.054126875 1.078908215529248
v 1.6312500000000003 7.19647125 -1.0794027280640668
v 1.6312500000000003 5.054126875 -1.0794027280640668
v 1.4214876927312774 7.375 1.078908215529248
v 1.4214876927312774 7.375 -1.0794027280640668
v -1.4204548733480178 7.375 1.078908215529248
v -1.4204548733480178 7.375 -1.0794027280640668
vt 0.010677929687500004 0.21413359374999996
vt 0.010677929687500004 0.348030078125
vt 0.0006130859375000075 0.35546875
vt 0.0006130859375000075 0.20669492187500005
vt 0.1455720703125 0.348030078125
vt 0.1455720703125 0.21413359374999996
vt 0.1556369140625 0.20669492187500005
vt 0.1556369140625 0.35546875
vt 0.668888671875 0.31849101562500004
vt 0.668888671875 0.45238749999999994
vt 0.678339453125 0.45982617187499997
vt 0.678339453125 0.31105234375
vt 0.678775390625 0.80078125
vt 0.54388125 0.80078125
vt 0.53545 0.79296875
vt 0.68720625 0.79296875
vt 0.1455720703125 0.21413359374999996
vt 0.1455720703125 0.348030078125
vt 0.010677929687500004 0.348030078125
vt 0.010677929687500004 0.21413359374999996
vt 0.48134062499999997 0.473783984375
vt 0.481340625 0.608678125
vt 0.47433359375 0.617108984375
vt 0.47433359375 0.465352734375
vt 0.663191015625 0.473783984375
vt 0.663191015625 0.608678125
vt 0.48134062499999997 0.608678125
vt 0.48134062499999997 0.473783984375
vt 0.663191015625 0.473783984375
vt 0.481340625 0.473783984375
vt 0.474996875 0.46484375
vt 0.6695347656249999 0.46484375
vt 0.7665451171875 0.857753125
vt 0.5889236328125 0.857753125
vt 0.5804654296875 0.849402734375
vt 0.7750033203125 0.849402734375
vt 0.7665451171875 0.991649609375
vt 0.7665451171875 0.857753125
vt 0.7758150390625 0.850314453125
vt 0.7758150390625 0.99908828125
vt 0.7665451171875 0.991649609375
vt 0.5889236328125 0.991649609375
vt 0.5889236328125 0.857753125
vt 0.7665451171875 0.857753125
vt 0.5889236328125 0.991649609375
vt 0.7665451171875 0.991649609375
vt 0.7750033203125 1
vt 0.5804654296875 1
vt 0.5889236328125 0.857753125
vt 0.5889236328125 0.991649609375
vt 0.5796537109375 0.9990886718750001
vt 0.5796537109375 0.850314453125
vt 0.18255273437500003 0.502944921875
vt 0.317446875 0.502944921875
vt 0.325878125 0.51171875
vt 0.17412187500000004 0.51171875
vt 0.317446875 0.502944921875
vt 0.317446875 0.36904843750000005
vt 0.327076171875 0.361609765625
vt 0.327076171875 0.51038359375
vt 0.317446875 0.36904843750000005
vt 0.18255273437500003 0.36904843750000005
vt 0.174121875 0.360275
vt 0.325878125 0.360275
vt 0.663191015625 0.608678125
vt 0.663191015625 0.473783984375
vt 0.67019765625 0.4653527343749999
vt 0.67019765625 0.617108984375
vt 0.7120189453125 0.78125
vt 0.5301685546875 0.78125
vt 0.5238248046875 0.7890625
vt 0.7183626953125 0.7890625
vt 0.4912671875 0.31849101562500004
vt 0.668888671875 0.31849101562499993
vt 0.677346875 0.30994062499999997
vt 0.482808984375 0.30994062499999997
vt 0.4912671875 0.45238749999999994
vt 0.4912671875 0.31849101562500004
vt 0.481816796875 0.31105234375
vt 0.481816796875 0.4598265625
vt 0.18255273437500003 0.36904843750000005
vt 0.18255273437500003 0.502944921875
vt 0.172923828125 0.51038359375
vt 0.172923828125 0.361609765625
vt 0.4912671875 0.31849101562500004
vt 0.4912671875 0.45238749999999994
vt 0.668888671875 0.45238749999999994
vt 0.668888671875 0.31849101562500004
vt 0.317446875 0.502944921875
vt 0.18255273437500003 0.502944921875
vt 0.18255273437500003 0.36904843750000005
vt 0.317446875 0.36904843750000005
vt 0.55950625 0.8046875
vt 0.694400390625 0.8046875
vt 0.70283125 0.8125
vt 0.551075 0.8125
vt 0.46782988281250004 0.6332347656249999
vt 0.6454513671875 0.6332347656249999
vt 0.6454513671875 0.76812890625
vt 0.46782988281250004 0.76812890625
vt 0.46782988281250004 0.7681289062500001
vt 0.6454513671875 0.76812890625
vt 0.6539095703125 0.77734375
vt 0.45937167968750003 0.77734375
vt 0.4678298828125 0.6332347656249999
vt 0.4678298828125 0.76812890625
vt 0.4585900390625 0.77656015625
vt 0.4585900390625 0.6248039062499999
vt 0.6454513671875 0.76812890625
vt 0.6454513671875 0.6332347656249999
vt 0.6546912109375 0.6248039062499999
vt 0.6546912109375 0.77656015625
vt 0.6454513671875 0.6332347656249999
vt 0.46782988281250004 0.6332347656249999
vt 0.45937167968750003 0.624019921875
vt 0.6539095703125 0.624019921875
vt 0.668888671875 0.45238749999999994
vt 0.4912671875 0.45238749999999994
vt 0.482808984375 0.4609375
vt 0.677346875 0.4609375
vn -0.8376387814783272 0 -0.5462245616626035
vn -0.8376387814783272 0 0.5462245616626035
vn -0.44606027184126423 0 0.8950029239532672
vn -0.8041957573997461 -0.5943645209635655 0
vn -1 0 0
vn -0.42465447924391303 -0.9053554955143759 0
vn 0 -1 0
vn 0 -0.942995449036661 -0.3328056235945333
vn 0 -0.45434311626105506 -0.890826769190393
vn -0.4092659469285981 0 -0.912415138346925
vn 0 0 -1
vn 0 0.4543431162610554 -0.8908267691903928
vn 0.4092659469285981 0 -0.912415138346925
vn 0.8478547110561565 0.5302286195028346 0
vn 0.8755574088370324 0 -0.4831140898696519
vn 0.8478547110561567 -0.5302286195028343 0
vn 0.4246569530912078 -0.9053543351590535 0
vn 0 -0.942995449036661 0.3328056235945333
vn 0 -0.4930288889589667 0.870012939358885
vn 0.44606027184126423 0 0.8950029239532672
vn 0.8755574088370324 0 0.4831140898696519
vn 0 0 1
vn 1 0 0
vn -0.8041957573997459 0.5943645209635658 0
vn 0 1 0
vn 0 0.914925101699079 -0.4036236592184976
vn -0.4025346887363406 0.9154047325439919 0
vn 0.4025346887363406 0.9154047325439919 0
vn 0 0.914925101699079 0.4036236592184976
vn 0 0.49302888895896707 0.8700129393588848
usemtl m_0a74f538-b92f-afdd-773a-94ea76f324f1
f 90/289/81 88/290/81 72/291/81 74/292/81
f 87/293/82 89/294/82 73/295/82 71/296/82
f 78/297/83 76/298/83 71/299/83 73/300/83
f 89/301/84 90/302/84 74/303/84 73/304/84
f 89/305/85 87/306/85 88/307/85 90/308/85
f 86/309/86 84/310/86 73/311/86 74/312/86
f 85/313/87 83/314/87 84/315/87 86/316/87
f 85/317/88 86/318/88 74/319/88 70/320/88
f 82/321/89 80/322/89 70/323/89 74/324/89
f 81/325/90 82/326/90 74/327/90 72/328/90
f 81/329/91 79/330/91 80/331/91 82/332/91
f 79/333/92 81/334/92 72/335/92 68/336/92
f 80/337/93 79/338/93 68/339/93 70/340/93
f 91/341/94 93/342/94 68/343/94 67/344/94
f 93/345/95 94/346/95 70/347/95 68/348/95
f 94/349/96 92/350/96 69/351/96 70/352/96
f 83/353/97 85/354/97 70/355/97 69/356/97
f 84/357/98 83/358/98 69/359/98 73/360/98
f 77/361/99 78/362/99 73/363/99 69/364/99
f 75/365/100 77/366/100 69/367/100 67/368/100
f 92/369/101 91/370/101 67/371/101 69/372/101
f 77/373/102 75/374/102 76/375/102 78/376/102
f 93/377/103 91/378/103 92/379/103 94/380/103
f 88/381/104 87/382/104 71/383/104 72/384/104
f 97/385/105 95/386/105 96/387/105 98/388/105
f 98/389/106 96/390/106 68/391/106 72/392/106
f 97/393/107 98/394/107 72/395/107 71/396/107
f 96/397/108 95/398/108 67/399/108 68/400/108
f 95/401/109 97/402/109 71/403/109 67/404/109
f 76/405/110 75/406/110 67/407/110 71/408/110