# Made in Blockbench 5.1.4
mtllib patient.mtl

o cylinder
v 0.335664375 0.11973875 1.6875
v 0.174048125 4.945475625 0.875
v 0.955891875 0.11973875 1.430593125
v 0.4956475 4.945475625 0.741789375
v 1.430593125 0.11973875 0.955891875
v 0.741789375 4.945475625 0.4956475
v 1.6875 0.11973875 0.335664375
v 0.875 4.945475625 0.174048125
v 1.6875 0.11973875 -0.335664375
v 0.875 4.945475625 -0.174048125
v 1.430593125 0.11973875 -0.955891875
v 0.741789375 4.945475625 -0.4956475
v 0.955891875 0.11973875 -1.430593125
v 0.4956475 4.945475625 -0.741789375
v 0.35173625 0.11973875 -1.6875
v 0.174048125 4.945475625 -0.875
v -0.336300625 0.11973875 -1.6875
v -0.174048125 4.945475625 -0.875
v -0.971963125 0.11973875 -1.430593125
v -0.4956475 4.945475625 -0.741789375
v -1.430593125 0.11973875 -0.955891875
v -0.741789375 4.945475625 -0.4956475
v -1.6875 0.11973875 -0.335664375
v -0.875 4.945475625 -0.174048125
v -1.6875 0.11973875 0.335664375
v -0.875 4.945475625 0.174048125
v -1.430593125 0.11973875 0.955891875
v -0.741789375 4.945475625 0.4956475
v -0.955891875 0.11973875 1.430593125
v -0.4956475 4.945475625 0.741789375
v -0.335664375 0.11973875 1.6875
v -0.174048125 4.945475625 0.875
v -0.864854375 0.012499999999999956 1.29434625
v -1.29434625 0.012499999999999956 0.864854375
v 0.0077175 0.012499999999999956 0
v -1.526785625 0.012499999999999956 0.30369625
v -1.526785625 0.012499999999999956 -0.30369625
v -1.29434625 0.012499999999999956 -0.864854375
v -0.878660625 0.012499999999999956 -1.29434625
v -0.303536875 0.012499999999999956 -1.526785625
v 0.3189725 0.012499999999999956 -1.526785625
v 0.864854375 0.012499999999999956 -1.29434625
v 1.29434625 0.012499999999999956 -0.864854375
v 1.526785625 0.012499999999999956 -0.30369625
v 1.526785625 0.012499999999999956 0.30369625
v 1.29434625 0.012499999999999956 0.864854375
v 0.864854375 0.012499999999999956 1.29434625
v 0.30369625 0.012499999999999956 1.526785625
v -0.30369625 0.012499999999999956 1.526785625
v -0.688804375 5.0125 -0.460244375
v -0.8125 5.0125 -0.16161625
v 0 5.0125 0
v -0.460244375 5.0125 -0.688804375
v -0.16161625 5.0125 -0.8125
v 0.16161625 5.0125 -0.8125
v 0.460244375 5.0125 -0.688804375
v 0.688804375 5.0125 -0.460244375
v 0.8125 5.0125 -0.16161625
v 0.8125 5.0125 0.16161625
v 0.688804375 5.0125 0.460244375
v 0.460244375 5.0125 0.688804375
v 0.16161625 5.0125 0.8125
v -0.16161625 5.0125 0.8125
v -0.460244375 5.0125 0.688804375
v -0.688804375 5.0125 0.460244375
v -0.8125 5.0125 0.16161625
vt 0.5205614474418561 0.96964609375
vt 0.48548879119185606 0.984173828125
vt 0.46699035369185604 0.888749609375
vt 0.12644765624999998 0.683036979171022
vt 0.16831404639403402 0.6858052649389095
vt 0.13805572005885858 0.9903259251401946
vt 0.116346875 0.988890494796022
vt 0.224944921875 0.2734375
vt 0.243608984375 0.28116835937500007
vt 0.21484375 0.32421875
vt 0.5474044161918561 0.942803125
vt 0.5205614474418561 0.96964609375
vt 0.46699035369185604 0.888749609375
vt 0.16831404639403402 0.6858052649389095
vt 0.2099065678725972 0.6913297727758496
vt 0.15962255687662624 0.9931905304774586
vt 0.13805572005885858 0.9903259251401946
vt 0.243608984375 0.28116835937500007
vt 0.257894140625 0.295453515625
vt 0.21484375 0.32421875
vt 0.5619321505668561 0.90773046875
vt 0.5474044161918561 0.942803125
vt 0.46699035369185604 0.888749609375
vt 0.349264078605966 0.3733052649389095
vt 0.39113046875 0.370536979171022
vt 0.40123125 0.676390494796022
vt 0.3795224049411414 0.6778259251401946
vt 0.257894140625 0.295453515625
vt 0.265625 0.31411757812499996
vt 0.21484375 0.32421875
vt 0.5619321505668561 0.86976875
vt 0.5619321505668561 0.90773046875
vt 0.46699035369185604 0.888749609375
vt 0.39113046875 0.370536979171022
vt 0.43308828125 0.370536979171022
vt 0.4229875 0.676390494796022
vt 0.40123125 0.676390494796022
vt 0.265625 0.31411757812499996
vt 0.265625 0.33431992187500004
vt 0.21484375 0.32421875
vt 0.5474044161918561 0.83469609375
vt 0.5619321505668561 0.86976875
vt 0.46699035369185604 0.888749609375
vt 0.43308828125 0.370536979171022
vt 0.474954671394034 0.3733052649389095
vt 0.4446963450588586 0.6778259251401946
vt 0.4229875 0.676390494796022
vt 0.265625 0.33431992187500004
vt 0.257894140625 0.352983984375
vt 0.21484375 0.32421875
vt 0.5205614474418561 0.8078531250000001
vt 0.5474044161918561 0.83469609375
vt 0.46699035369185604 0.888749609375
vt 0.18929143750951427 0.5272907871339026
vt 0.23088255960647075 0.5217557539360604
vt 0.2612179479544149 0.8262687471166665
vt 0.2396518367535054 0.8291388101355752
vt 0.257894140625 0.352983984375
vt 0.243608984375 0.36726914062500005
vt 0.21484375 0.32421875
vt 0.48644386931685607 0.793325390625
vt 0.5205614474418561 0.8078531250000001
vt 0.46699035369185604 0.888749609375
vt 0.23088255960647075 0.5217557539360604
vt 0.2718198292157218 0.518974479171022
vt 0.28292530849546793 0.8248282847936756
vt 0.26121793605492244 0.8262686276670648
vt 0.243608984375 0.36726914062500005
vt 0.22494492187499998 0.375
vt 0.21484375 0.32421875
vt 0.44753683806685607 0.793325390625
vt 0.48644386931685607 0.793325390625
vt 0.46699035369185604 0.888749609375
vt 0.2718198292157218 0.518974479171022
vt 0.3148221729657218 0.518974479171022
vt 0.3046815479657218 0.824827994796022
vt 0.2829252979657218 0.824827994796022
vt 0.22494492187499998 0.375
vt 0.20474257812499996 0.375
vt 0.21484375 0.32421875
vt 0.4115915255668561 0.8078531250000001
vt 0.44753683806685607 0.793325390625
vt 0.46699035369185604 0.888749609375
vt 0.3148221729657218 0.518974479171022
vt 0.35758356249048573 0.5217408883321476
vt 0.3263896090620976 0.8262638667691204
vt 0.30468154222898014 0.8248281678230893
vt 0.20474257812500002 0.375
vt 0.18607851562500002 0.36726914062500005
vt 0.21484375 0.32421875
vt 0.38561144744185605 0.83469609375
vt 0.4115915255668561 0.8078531250000001
vt 0.46699035369185604 0.888749609375
vt 0.0006840176448502239 0.36690127788676874
vt 0.041594139567081787 0.3615865149389095
vt 0.07185247367807042 0.6661072533962009
vt 0.0502890649344699 0.668971649038517
vt 0.18607851562500002 0.36726914062500005
vt 0.171793359375 0.352983984375
vt 0.21484375 0.32421875
vt 0.37108371306685606 0.86976875
vt 0.38561144744185605 0.83469609375
vt 0.46699035369185604 0.888749609375
vt 0.041594139567081787 0.3615865149389095
vt 0.08346052971111578 0.358818229171022
vt 0.09356131096111578 0.664671744796022
vt 0.07185246590225719 0.6661071751401946
vt 0.171793359375 0.352983984375
vt 0.1640625 0.33431992187500004
vt 0.21484375 0.32421875
vt 0.37108371306685606 0.90773046875
vt 0.37108371306685606 0.86976875
vt 0.46699035369185604 0.888749609375
vt 0.08346052971111578 0.358818229171022
vt 0.12541834221111578 0.358818229171022
vt 0.11531756096111578 0.664671744796022
vt 0.09356131096111578 0.664671744796022
vt 0.1640625 0.33431992187500004
vt 0.1640625 0.31411757812499996
vt 0.21484375 0.32421875
vt 0.38561144744185605 0.942803125
vt 0.37108371306685606 0.90773046875
vt 0.46699035369185604 0.888749609375
vt 0.12541834221111578 0.358818229171022
vt 0.1672847323551498 0.3615865149389095
vt 0.13702640601997434 0.6661071751401946
vt 0.11531756096111578 0.664671744796022
vt 0.1640625 0.31411757812499996
vt 0.171793359375 0.295453515625
vt 0.21484375 0.32421875
vt 0.4124544161918561 0.96964609375
vt 0.38561144744185605 0.942803125
vt 0.46699035369185604 0.888749609375
vt 0.001030932127402781 0.6913297727758496
vt 0.042623453605966005 0.6858052649389095
vt 0.07288177994114141 0.9903259251401946
vt 0.05131494312337376 0.9931905304774586
vt 0.171793359375 0.295453515625
vt 0.186078515625 0.28116835937500007
vt 0.21484375 0.32421875
vt 0.4475270724418561 0.984173828125
vt 0.4124544161918561 0.96964609375
vt 0.46699035369185604 0.888749609375
vt 0.042623453605966005 0.6858052649389095
vt 0.08448984375 0.683036979171022
vt 0.094590625 0.988890494796022
vt 0.07288177994114141 0.9903259251401946
vt 0.186078515625 0.28116835937500007
vt 0.20474257812500002 0.2734375
vt 0.21484375 0.32421875
vt 0.48548879119185606 0.984173828125
vt 0.4475270724418561 0.984173828125
vt 0.46699035369185604 0.888749609375
vt 0.08448984375 0.683036979171022
vt 0.12644765624999998 0.683036979171022
vt 0.116346875 0.988890494796022
vt 0.094590625 0.988890494796022
vt 0.20474257812500002 0.2734375
vt 0.224944921875 0.2734375
vt 0.21484375 0.32421875
vt 0.37943113401613177 0.9556009736905634
vt 0.4109516958328239 0.9767562631760369
vt 0.4058813557474988 0.9878962318241159
vt 0.371042737630414 0.9645140010178586
vt 0.35640463629466423 0.9254198181314615
vt 0.37943113401613177 0.9556009736905634
vt 0.37104273763041395 0.9645140010178586
vt 0.3455925851010799 0.9311561268946656
vt 0.3443260370728357 0.8894309374696161
vt 0.35640463629466423 0.9254198181314615
vt 0.34559252877598823 0.9311561567778128
vt 0.33224245880814396 0.8913788559438093
vt 0.34448237926029757 0.851469150033829
vt 0.34432603707283577 0.8894309374696161
vt 0.332242521756894 0.8913788457962329
vt 0.3324153197466623 0.8494213891211688
vt 0.35617939682051647 0.8159905992741177
vt 0.34448237926029757 0.851469150033829
vt 0.33241521378605704 0.8494213711398216
vt 0.34530383264677833 0.8102324799914304
vt 0.4475366740824401 0.7933254569012922
vt 0.4115915255668561 0.8078531250000001
vt 0.40500116167559386 0.797460758161611
vt 0.4447300542745899 0.7814034226394635
vt 0.48644386931685607 0.793325390625
vt 0.44753683806685607 0.793325390625
vt 0.44548918181685604 0.78125
vt 0.48849152556685604 0.78125
vt 0.5205612473138685 0.8078530397827483
vt 0.48644386931685607 0.793325390625
vt 0.48928719233988216 0.7814124140109728
vt 0.5270453925853074 0.7974721191371741
vt 0.5474044361954775 0.8346961137536215
vt 0.5205614474418561 0.8078531250000001
vt 0.5276872055438289 0.797901701909145
vt 0.5573558592863326 0.8275703556516486
vt 0.5619320269051084 0.8697684514575117
vt 0.5474044161918561 0.83469609375
vt 0.5577959771131491 0.828229045607293
vt 0.5738526919905644 0.8669929455288765
vt 0.5619321505668561 0.90773046875
vt 0.561932150566856 0.86976875
vt 0.574007541191856 0.8677707031249999
vt 0.574007541191856 0.9097285156249999
vt 0.5474045398536038 0.9428028264575118
vt 0.5619321505668561 0.90773046875
vt 0.5738528156523122 0.9105059746786351
vt 0.5577961007748968 0.9492698746002187
vt 0.5205614274382345 0.9696461137536215
vt 0.5474044161918561 0.942803125
vt 0.5573558392827112 0.9499288831019729
vt 0.5276871855402074 0.9795975368444766
vt 0.4854890897343443 0.9841737044632523
vt 0.5205614474418561 0.96964609375
vt 0.527028495584563 0.9800376546712931
vt 0.4882645956629795 0.9960943695487084
vt 0.44760698864836324 0.9866310419992074
vt 0.4854890897343443 0.9841737044632523
vt 0.4882646101219034 0.9960944316490945
vt 0.44639479635137597 0.998810444279129
vt 0.4109516958328239 0.9767562631760369
vt 0.44760698864836324 0.9866310419992074
vt 0.44639480266622644 0.9988103808311889
vt 0.4058813557474988 0.9878962318241159
vt 0.09433826408611579 0.670399479171022
vt 0.07486594435431378 0.67578125
vt 0.07259123632979893 0.6704674659780235
vt 0.09356131096111578 0.664671744796022
vt 0.022660546875 0.953125
vt 0.002458203124999999 0.953125
vt 0.0016812499999999987 0.94921875
vt 0.0234375 0.94921875
vt 0.3233769145725238 0.8359375
vt 0.3039045948407218 0.830555729171022
vt 0.3046815479657218 0.824827994796022
vt 0.3256516225970386 0.8306237159780235
vt 0.3039045948407218 0.830555729171022
vt 0.2837022510907218 0.830555729171022
vt 0.2829252979657218 0.824827994796022
vt 0.3046815479657218 0.824827994796022
vt 0.2837022510907218 0.830555729171022
vt 0.2642299313589198 0.8359375
vt 0.26195522333440496 0.8306237159780235
vt 0.2829252979657218 0.824827994796022
vt 0.020979296875 0.9453125
vt 0.0007769531250000003 0.9453125
vt 0 0.94140625
vt 0.02175625 0.94140625
vt 0.441682866606802 0.6875
vt 0.422210546875 0.682118229171022
vt 0.4229875 0.676390494796022
vt 0.44395757463131685 0.6821862159780235
vt 0.422210546875 0.682118229171022
vt 0.402008203125 0.682118229171022
vt 0.40123125 0.676390494796022
vt 0.4229875 0.676390494796022
vt 0.402008203125 0.682118229171022
vt 0.382535883393198 0.6875
vt 0.38026117536868315 0.6821862159780235
vt 0.40123125 0.676390494796022
vt 0.022660546875 0.9375
vt 0.002458203124999999 0.9375
vt 0.0016812499999999987 0.93359375
vt 0.0234375 0.93359375
vt 0.135042241606802 1
vt 0.115569921875 0.994618229171022
vt 0.116346875 0.988890494796022
vt 0.13731694963131685 0.9946862159780235
vt 0.115569921875 0.994618229171022
vt 0.095367578125 0.994618229171022
vt 0.094590625 0.988890494796022
vt 0.116346875 0.988890494796022
vt 0.095367578125 0.994618229171022
vt 0.075895258393198 1
vt 0.07362055036868316 0.9946862159780235
vt 0.094590625 0.988890494796022
vt 0.020979296875 0.9296875
vt 0.0007769531250000003 0.9296875
vt 0 0.92578125
vt 0.02175625 0.92578125
vt 0.13401292756791777 0.67578125
vt 0.11454060783611578 0.670399479171022
vt 0.11531756096111578 0.664671744796022
vt 0.13628763559243262 0.6704674659780235
vt 0.11454060783611578 0.670399479171022
vt 0.09433826408611579 0.670399479171022
vt 0.09356131096111578 0.664671744796022
vt 0.11531756096111578 0.664671744796022
vn 0 -1 0
vn 0.37737227387846806 0.16603113200500516 0.911056436294114
vn 0 1 0
vn 0 -1 0
vn 0.6972924987242882 0.16603114902233626 0.6972924987242882
vn 0 1 0
vn 0 -1 0
vn 0.9110564271998445 0.16603119046959655 0.3773722701114948
vn 0 1 0
vn 0 -1 0
vn 0.9861204993056828 0.16603120444395703 0
vn 0 1 0
vn 0 -1 0
vn 0.911056436294114 0.16603113200500516 -0.37737227387846806
vn 0 1 0
vn 0 -1 0
vn 0.6972924987242882 0.16603114902233626 -0.6972924987242882
vn 0 1 0
vn 0 -1 0
vn 0.38582863003423834 0.16697277061729168 -0.907334757472835
vn 0 1 0
vn 0 -1 0
vn 0 0.16603120444395705 -0.9861204993056829
vn 0 1 0
vn 0 -1 0
vn -0.3694515059899111 0.16694490754227673 -0.9141307250976128
vn 0 1 0
vn 0 -1 0
vn -0.7091300618501452 0.16656006373240856 -0.6851221063065076
vn 0 1 0
vn 0 -1 0
vn -0.9110564271998445 0.16603119046959655 -0.3773722701114948
vn 0 1 0
vn 0 -1 0
vn -0.9861204993056828 0.16603120444395703 0
vn 0 1 0
vn 0 -1 0
vn -0.911056436294114 0.16603113200500516 0.37737227387846806
vn 0 1 0
vn 0 -1 0
vn -0.6972924987242882 0.16603114902233626 0.6972924987242882
vn 0 1 0
vn 0 -1 0
vn -0.3773722701114948 0.16603119046959655 0.9110564271998445
vn 0 1 0
vn 0 -1 0
vn 0 0.16603120444395703 0.9861204993056828
vn 0 1 0
vn -0.3924751403510277 -0.8318212118074906 0.3924751403510277
vn -0.5127936314098085 -0.8318210885342814 0.21240613987167392
vn -0.5550435416878818 -0.8318212950090739 0
vn -0.5127933122151935 -0.8318213190695644 -0.2124060076568961
vn -0.39797483048464305 -0.8326170081431377 -0.3851817130283964
vn -0.20747320167204858 -0.8327223981445365 -0.5133500542674184
vn 0 -0.8318212950090739 -0.5550435416878818
vn 0.21745871593339589 -0.8318036382163859 -0.5106999259003105
vn 0.3924751403510277 -0.8318212118074906 -0.3924751403510277
vn 0.5127936314098085 -0.8318210885342814 -0.21240613987167392
vn 0.5550435416878818 -0.8318212950090739 0
vn 0.5127933122151935 -0.8318213190695644 0.2124060076568961
vn 0.3924751403510277 -0.8318212118074906 0.3924751403510277
vn 0.21240613987167392 -0.8318210885342814 0.5127936314098085
vn 0 -0.8318212950090739 0.5550435416878818
vn -0.2124060076568961 -0.8318213190695644 0.5127933122151935
vn -0.6756894149562603 0.6819907648750817 -0.27987927958526665
vn -0.5171505430857161 0.6819901990295008 -0.5171505430857161
vn -0.2798792571381601 0.6819908277785263 -0.675689360764066
vn 0 0.6819911179265022 -0.7313604549532056
vn 0.27987927958526665 0.6819907648750817 -0.6756894149562603
vn 0.5171505430857161 0.6819901990295008 -0.5171505430857161
vn 0.675689360764066 0.6819908277785263 -0.2798792571381601
vn 0.7313604549532056 0.6819911179265022 0
vn 0.6756894149562603 0.6819907648750817 0.27987927958526665
vn 0.5171505430857161 0.6819901990295008 0.5171505430857161
vn 0.2798792571381601 0.6819908277785263 0.675689360764066
vn 0 0.6819911179265022 0.7313604549532056
vn -0.27987927958526665 0.6819907648750817 0.6756894149562603
vn -0.5171505430857161 0.6819901990295008 0.5171505430857161
vn -0.675689360764066 0.6819908277785263 0.2798792571381601
vn -0.7313604549532056 0.6819911179265022 0
usemtl m_1639aaca-f683-74e7-671d-a529b520a466
f 47/1/1 48/2/1 35/3/1
f 1/4/2 3/5/2 4/6/2 2/7/2
f 62/8/3 61/9/3 52/10/3
f 46/11/4 47/12/4 35/13/4
f 3/14/5 5/15/5 6/16/5 4/17/5
f 61/18/6 60/19/6 52/20/6
f 45/21/7 46/22/7 35/23/7
f 5/24/8 7/25/8 8/26/8 6/27/8
f 60/28/9 59/29/9 52/30/9
f 44/31/10 45/32/10 35/33/10
f 7/34/11 9/35/11 10/36/11 8/37/11
f 59/38/12 58/39/12 52/40/12
f 43/41/13 44/42/13 35/43/13
f 9/44/14 11/45/14 12/46/14 10/47/14
f 58/48/15 57/49/15 52/50/15
f 42/51/16 43/52/16 35/53/16
f 11/54/17 13/55/17 14/56/17 12/57/17
f 57/58/18 56/59/18 52/60/18
f 41/61/19 42/62/19 35/63/19
f 13/64/20 15/65/20 16/66/20 14/67/20
f 56/68/21 55/69/21 52/70/21
f 40/71/22 41/72/22 35/73/22
f 15/74/23 17/75/23 18/76/23 16/77/23
f 55/78/24 54/79/24 52/80/24
f 39/81/25 40/82/25 35/83/25
f 17/84/26 19/85/26 20/86/26 18/87/26
f 54/88/27 53/89/27 52/90/27
f 38/91/28 39/92/28 35/93/28
f 19/94/29 21/95/29 22/96/29 20/97/29
f 53/98/30 50/99/30 52/100/30
f 37/101/31 38/102/31 35/103/31
f 21/104/32 23/105/32 24/106/32 22/107/32
f 50/108/33 51/109/33 52/110/33
f 36/111/34 37/112/34 35/113/34
f 23/114/35 25/115/35 26/116/35 24/117/35
f 51/118/36 66/119/36 52/120/36
f 34/121/37 36/122/37 35/123/37
f 25/124/38 27/125/38 28/126/38 26/127/38
f 66/128/39 65/129/39 52/130/39
f 33/131/40 34/132/40 35/133/40
f 27/134/41 29/135/41 30/136/41 28/137/41
f 65/138/42 64/139/42 52/140/42
f 49/141/43 33/142/43 35/143/43
f 29/144/44 31/145/44 32/146/44 30/147/44
f 64/148/45 63/149/45 52/150/45
f 48/151/46 49/152/46 35/153/46
f 31/154/47 1/155/47 2/156/47 32/157/47
f 63/158/48 62/159/48 52/160/48
f 34/161/49 33/162/49 29/163/49 27/164/49
f 36/165/50 34/166/50 27/167/50 25/168/50
f 37/169/51 36/170/51 25/171/51 23/172/51
f 38/173/52 37/174/52 23/175/52 21/176/52
f 39/177/53 38/178/53 21/179/53 19/180/53
f 40/181/54 39/182/54 19/183/54 17/184/54
f 41/185/55 40/186/55 17/187/55 15/188/55
f 42/189/56 41/190/56 15/191/56 13/192/56
f 43/193/57 42/194/57 13/195/57 11/196/57
f 44/197/58 43/198/58 11/199/58 9/200/58
f 45/201/59 44/202/59 9/203/59 7/204/59
f 46/205/60 45/206/60 7/207/60 5/208/60
f 47/209/61 46/210/61 5/211/61 3/212/61
f 48/213/62 47/214/62 3/215/62 1/216/62
f 49/217/63 48/218/63 1/219/63 31/220/63
f 33/221/64 49/222/64 31/223/64 29/224/64
f 51/225/65 50/226/65 22/227/65 24/228/65
f 50/229/66 53/230/66 20/231/66 22/232/66
f 53/233/67 54/234/67 18/235/67 20/236/67
f 54/237/68 55/238/68 16/239/68 18/240/68
f 55/241/69 56/242/69 14/243/69 16/244/69
f 56/245/70 57/246/70 12/247/70 14/248/70
f 57/249/71 58/250/71 10/251/71 12/252/71
f 58/253/72 59/254/72 8/255/72 10/256/72
f 59/257/73 60/258/73 6/259/73 8/260/73
f 60/261/74 61/262/74 4/263/74 6/264/74
f 61/265/75 62/266/75 2/267/75 4/268/75
f 62/269/76 63/270/76 32/271/76 2/272/76
f 63/273/77 64/274/77 30/275/77 32/276/77
f 64/277/78 65/278/78 28/279/78 30/280/78
f 65/281/79 66/282/79 26/283/79 28/284/79
f 66/285/80 51/286/80 24/287/80 26/288/80
o sphere
v 0 4.5625 0
v 0 8.0625 0
v 0.133210625 7.929289375 0.66969625
v 0.24614125 7.549936875 1.237436875
v 0.321599375 6.98219625 1.616789375
v 0.348096875 6.3125 1.75
v 0.321599375 5.64280375 1.616789375
v 0.24614125 5.075063125 1.237436875
v 0.133210625 4.695710625 0.66969625
v 0.3793525 7.929289375 0.567740625
v 0.700951875 7.549936875 1.049048125
v 0.9158375 6.98219625 1.3706475
v 0.991295625 6.3125 1.483578125
v 0.9158375 5.64280375 1.3706475
v 0.700951875 5.075063125 1.049048125
v 0.3793525 4.695710625 0.567740625
v 0.567740625 7.929289375 0.3793525
v 1.049048125 7.549936875 0.700951875
v 1.3706475 6.98219625 0.9158375
v 1.483578125 6.3125 0.991295625
v 1.3706475 5.64280375 0.9158375
v 1.049048125 5.075063125 0.700951875
v 0.567740625 4.695710625 0.3793525
v 0.66969625 7.929289375 0.133210625
v 1.237436875 7.549936875 0.24614125
v 1.616789375 6.98219625 0.321599375
v 1.75 6.3125 0.348096875
v 1.616789375 5.64280375 0.321599375
v 1.237436875 5.075063125 0.24614125
v 0.66969625 4.695710625 0.133210625
v 0.66969625 7.929289375 -0.133210625
v 1.237436875 7.549936875 -0.24614125
v 1.616789375 6.98219625 -0.321599375
v 1.75 6.3125 -0.348096875
v 1.616789375 5.64280375 -0.321599375
v 1.237436875 5.075063125 -0.24614125
v 0.66969625 4.695710625 -0.133210625
v 0.567740625 7.929289375 -0.3793525
v 1.049048125 7.549936875 -0.700951875
v 1.3706475 6.98219625 -0.9158375
v 1.483578125 6.3125 -0.991295625
v 1.3706475 5.64280375 -0.9158375
v 1.049048125 5.075063125 -0.700951875
v 0.567740625 4.695710625 -0.3793525
v 0.3793525 7.929289375 -0.567740625
v 0.700951875 7.549936875 -1.049048125
v 0.9158375 6.98219625 -1.3706475
v 0.991295625 6.3125 -1.483578125
v 0.9158375 5.64280375 -1.3706475
v 0.700951875 5.075063125 -1.049048125
v 0.3793525 4.695710625 -0.567740625
v 0.133210625 7.929289375 -0.66969625
v 0.24614125 7.549936875 -1.237436875
v 0.321599375 6.98219625 -1.616789375
v 0.348096875 6.3125 -1.75
v 0.321599375 5.64280375 -1.616789375
v 0.24614125 5.075063125 -1.237436875
v 0.133210625 4.695710625 -0.66969625
v -0.133210625 7.929289375 -0.66969625
v -0.24614125 7.549936875 -1.237436875
v -0.321599375 6.98219625 -1.616789375
v -0.348096875 6.3125 -1.75
v -0.321599375 5.64280375 -1.616789375
v -0.24614125 5.075063125 -1.237436875
v -0.133210625 4.695710625 -0.66969625
v -0.3793525 7.929289375 -0.567740625
v -0.700951875 7.549936875 -1.049048125
v -0.9158375 6.98219625 -1.3706475
v -0.991295625 6.3125 -1.483578125
v -0.9158375 5.64280375 -1.3706475
v -0.700951875 5.075063125 -1.049048125
v -0.3793525 4.695710625 -0.567740625
v -0.567740625 7.929289375 -0.3793525
v -1.049048125 7.549936875 -0.700951875
v -1.3706475 6.98219625 -0.9158375
v -1.483578125 6.3125 -0.991295625
v -1.3706475 5.64280375 -0.9158375
v -1.049048125 5.075063125 -0.700951875
v -0.567740625 4.695710625 -0.3793525
v -0.66969625 7.929289375 -0.133210625
v -1.237436875 7.549936875 -0.24614125
v -1.616789375 6.98219625 -0.321599375
v -1.75 6.3125 -0.348096875
v -1.616789375 5.64280375 -0.321599375
v -1.237436875 5.075063125 -0.24614125
v -0.66969625 4.695710625 -0.133210625
v -0.66969625 7.929289375 0.133210625
v -1.237436875 7.549936875 0.24614125
v -1.616789375 6.98219625 0.321599375
v -1.75 6.3125 0.348096875
v -1.616789375 5.64280375 0.321599375
v -1.237436875 5.075063125 0.24614125
v -0.66969625 4.695710625 0.133210625
v -0.567740625 7.929289375 0.3793525
v -1.049048125 7.549936875 0.700951875
v -1.3706475 6.98219625 0.9158375
v -1.483578125 6.3125 0.991295625
v -1.3706475 5.64280375 0.9158375
v -1.049048125 5.075063125 0.700951875
v -0.567740625 4.695710625 0.3793525
v -0.3793525 7.929289375 0.567740625
v -0.700951875 7.549936875 1.049048125
v -0.9158375 6.98219625 1.3706475
v -0.991295625 6.3125 1.483578125
v -0.9158375 5.64280375 1.3706475
v -0.700951875 5.075063125 1.049048125
v -0.3793525 4.695710625 0.567740625
v -0.133210625 7.929289375 0.66969625
v -0.24614125 7.549936875 1.237436875
v -0.321599375 6.98219625 1.616789375
v -0.348096875 6.3125 1.75
v -0.321599375 5.64280375 1.616789375
v -0.24614125 5.075063125 1.237436875
v -0.133210625 4.695710625 0.66969625
vt 0.5476393560477724 0.5482758275991508
vt 0.5326034725583988 0.5411206377773925
vt 0.5584592318884071 0.5061632258567512
vt 0.5476393560477724 0.5482758275991508
vt 0.5356748935053683 0.58984375
vt 0.5078922999301598 0.5766227290395841
vt 0.5326034725583988 0.5411206377773925
vt 0.6699323529145109 0.4028738633796164
vt 0.6685376485911221 0.3599609526356058
vt 0.7086167589915146 0.36307622301121534
vt 0.7006077961067267 0.40525820520958045
vt 0.6685376485911221 0.3599609526356058
vt 0.6701935085533974 0.31728515625
vt 0.7135747681403272 0.32065709618323934
vt 0.7086167589915146 0.36307622301121534
vt 0.6701935085533974 0.31728515625
vt 0.6751519071525209 0.2748660596932302
vt 0.7152310175529135 0.27798133006883974
vt 0.7135747681403272 0.32065709618323934
vt 0.670490625 0.9994140625
vt 0.665774609375 0.95673828125
vt 0.6958001663674716 0.9500201097507884
vt 0.7097206242536023 0.9906364114154349
vt 0.4914127383595792 0.5771038432000365
vt 0.5187128074353117 0.6106559931328179
vt 0.5076846143724963 0.6231321099750361
vt 0.47103562410151767 0.6001563284932079
vt 0.5250602923331038 0.6229418622226075
vt 0.5400961758224773 0.6157866724008492
vt 0.5509160516631122 0.6578992741432487
vt 0.5326034725583988 0.5411206377773925
vt 0.5213597014029252 0.5288384497030003
vt 0.5584592318884071 0.5061632258567512
vt 0.5326034725583988 0.5411206377773925
vt 0.5058917960518984 0.5751430844099275
vt 0.48511608809393547 0.5524486388373557
vt 0.5213597014029252 0.5288384497030003
vt 0.444984765625 0.77734375
vt 0.44026875 0.734375
vt 0.48046875 0.734375
vt 0.475752734375 0.77734375
vt 0.7086167589915146 0.36307622301121534
vt 0.7135747681403272 0.32065709618323934
vt 0.7565639408621044 0.32738024256542564
vt 0.7483339844439209 0.36928766425803783
vt 0.14789453125000002 0.6796875
vt 0.149550390625 0.63671875
vt 0.189750390625 0.63671875
vt 0.19140625 0.6796875
vt 0.7097206242536023 0.9906364114154349
vt 0.6958001663674716 0.9500201097507884
vt 0.7236343159460115 0.9369079772682194
vt 0.7460874322853253 0.9735047076594214
vt 0.47103562410151767 0.6001563284932079
vt 0.5076846683760011 0.6231321438306134
vt 0.5012606109781965 0.6384946312672599
vt 0.4591655550155769 0.6285424053777646
vt 0.5138165211776302 0.6352240502969997
vt 0.5250602923331038 0.6229418622226075
vt 0.5509160516631122 0.6578992741432487
vt 0.5213597014029252 0.5288384497030003
vt 0.5155571004463327 0.5132306197503784
vt 0.5584592318884071 0.5061632258567512
vt 0.5213597014029252 0.5288384497030003
vt 0.48381845561050546 0.5503255481810345
vt 0.47309668431119617 0.5214861390122204
vt 0.5155571004463327 0.5132306197503784
vt 0.20369001640377454 1
vt 0.1956806679947694 0.9578180910017545
vt 0.2357597499213026 0.954702454321036
vt 0.2343654378028856 0.9976153778102312
vt 0.1956806679947694 0.9578180910017545
vt 0.19072227115421558 0.9153990094895481
vt 0.2341034999213026 0.912026673071036
vt 0.2357597499213026 0.954702454321036
vt 0.19072227115421558 0.9153990094895481
vt 0.18906563170418128 0.8727232585143138
vt 0.22914471363071448 0.8696076218335952
vt 0.23410349992130258 0.912026673071036
vt 0.6295178467305362 0.7256034341472155
vt 0.643438304616667 0.6849871324825691
vt 0.6734638616091385 0.6917053039817807
vt 0.6687478459841385 0.7343810852317807
vt 0.4591655550155769 0.6285424053777646
vt 0.5012605489498243 0.638494616602346
vt 0.5001247768789174 0.6551073994966823
vt 0.45706695580461265 0.6592383292933226
vt 0.5080139202210378 0.6508318802496216
vt 0.5138165211776302 0.6352240502969997
vt 0.5509160516631122 0.6578992741432487
vt 0.5155571004463327 0.5132306197503784
vt 0.5160467030841349 0.496586256652066
vt 0.5584592318884071 0.5061632258567512
vt 0.5155571004463327 0.5132306197503784
vt 0.472692239356132 0.5190309835639169
vt 0.4735969039279892 0.4882763175274697
vt 0.5160467030841349 0.496586256652066
vt 0.24047576554630262 0.997378235571036
vt 0.2357597499213026 0.954702454321036
vt 0.2759597499213026 0.954702454321036
vt 0.2712437342963026 0.997378235571036
vt 0.2357597499213026 0.954702454321036
vt 0.2341034999213026 0.912026673071036
vt 0.2776156092963026 0.912026673071036
vt 0.2759597499213026 0.954702454321036
vt 0.2341034999213026 0.912026673071036
vt 0.2357597499213026 0.869350891821036
vt 0.2759597499213026 0.869350891821036
vt 0.2776156092963026 0.912026673071036
vt 0.6687478459841385 0.7343810852317807
vt 0.6734638616091385 0.6917053039817807
vt 0.7042318303591385 0.6917053039817807
vt 0.7089478459841385 0.7343810852317807
vt 0.45706695580461265 0.6592383292933226
vt 0.5001247768789174 0.6551073994966823
vt 0.5043983910489663 0.671201210593404
vt 0.4649635377159872 0.6889757114094055
vt 0.50850352285884 0.667476243347934
vt 0.5080139202210378 0.6508318802496216
vt 0.5509160516631122 0.6578992741432488
vt 0.5160467030841349 0.496586256652066
vt 0.5227567021735663 0.48134649136807184
vt 0.5584592318884071 0.5061632258567512
vt 0.5160467030841349 0.496586256652066
vt 0.47414496406697937 0.4858491805142252
vt 0.4865433826716089 0.45768986381254806
vt 0.5227567021735663 0.48134649136807184
vt 0.2773544536574161 0.9976153802006523
vt 0.2759597493340272 0.9547024694566417
vt 0.31603885973441975 0.9578177398322514
vt 0.3080298968496319 0.9999997220306164
vt 0.2759597493340272 0.9547024694566417
vt 0.2776156092963026 0.912026673071036
vt 0.3209968688832324 0.9153986130042753
vt 0.31603885973441975 0.9578177398322514
vt 0.2776156092963026 0.912026673071036
vt 0.2825740078954262 0.8696075765142661
vt 0.3226531182958187 0.8727228468898758
vt 0.3209968688832324 0.9153986130042753
vt 0.7089478459841385 0.7343810852317807
vt 0.7042318303591385 0.6917053039817807
vt 0.7342573873516101 0.6849871324825691
vt 0.7481778452377408 0.7256034341472155
vt 0.4649635377159872 0.6889757114094055
vt 0.5043983910489663 0.671201210593404
vt 0.5136262353149926 0.6850619978687853
vt 0.48201409494629505 0.714586692683343
vt 0.5152135219482714 0.6827160086319282
vt 0.50850352285884 0.667476243347934
vt 0.5509160516631122 0.6578992741432488
vt 0.5227567021735663 0.48134649136807184
vt 0.5347029815653881 0.4697464507481456
vt 0.5584592318884071 0.5061632258567512
vt 0.5227567021735663 0.48134649136807184
vt 0.48796356714359135 0.4556467191621253
vt 0.5100373365575033 0.4342127133568069
vt 0.5347029815653881 0.4697464507481456
vt 0.313309765625 0.51171875
vt 0.30859375 0.46875
vt 0.34879375 0.46875
vt 0.344077734375 0.51171875
vt 0.5719788985709264 0.8390298952460893
vt 0.5637485591378956 0.7971225487733677
vt 0.6067376704113103 0.7903990094895481
vt 0.6116960672518642 0.8328180910017545
vt 0.33984375 0.8046875
vt 0.341499609375 0.76171875
vt 0.381699609375 0.76171875
vt 0.38335546875 0.8046875
vt 0.7481778452377408 0.7256034341472155
vt 0.7342573873516101 0.6849871324825691
vt 0.76209153693015 0.671875
vt 0.7845446532694638 0.708471730391202
vt 0.48201409494629505 0.714586692683343
vt 0.5136262818965318 0.6850619543631665
vt 0.5268254653399282 0.6952136089139762
vt 0.5064029211427519 0.7333444392900117
vt 0.5271598013400932 0.6943160492518545
vt 0.5152135219482714 0.6827160086319282
vt 0.5509160516631122 0.6578992741432488
vt 0.5347029815653881 0.4697464507481456
vt 0.5501334506384071 0.4634874446067513
vt 0.5584592318884071 0.5061632258567512
vt 0.5347029815653881 0.4697464507481456
vt 0.5121213552487018 0.43285321709283753
vt 0.5406330453820745 0.42128812190345355
vt 0.5501334506384071 0.4634874446067513
vt 0.6197054156608693 0.875
vt 0.6116960672518642 0.8328180910017545
vt 0.6517751491783974 0.829702454321036
vt 0.6503808370599804 0.8726153778102312
vt 0.6116960672518642 0.8328180910017545
vt 0.6067376704113103 0.7903990094895481
vt 0.6501188991783974 0.787026673071036
vt 0.6517751491783974 0.829702454321036
vt 0.6067376704113103 0.7903990094895481
vt 0.6050810309612761 0.7477232585143138
vt 0.6451601128878093 0.7446076218335952
vt 0.6501188991783974 0.787026673071036
vt 0 1
vt 0.004716015625 0.95703125
vt 0.035483984375 0.95703125
vt 0.0402 1
vt 0.5064029211427519 0.7333444392900117
vt 0.5268254352466751 0.6952136651009388
vt 0.5425902704131123 0.7005750553932488
vt 0.5355320672881122 0.7432508366432488
vt 0.5425902704131123 0.7005750553932487
vt 0.5271598013400932 0.6943160492518545
vt 0.5509160516631122 0.6578992741432488
vt 0.5501334506384071 0.4634874446067513
vt 0.5667850131384071 0.4634874446067513
vt 0.5584592318884071 0.5061632258567512
vt 0.5501334506384071 0.4634874446067513
vt 0.5430752475134071 0.42081166335675124
vt 0.5738432162634071 0.42081166335675124
vt 0.5667850131384071 0.4634874446067513
vt 0.5430752475134071 0.42081166335675124
vt 0.5383592318884072 0.3781358821067513
vt 0.5785592318884071 0.3781358821067513
vt 0.5738432162634071 0.42081166335675124
vt 0.6517751491783974 0.829702454321036
vt 0.6501188991783974 0.787026673071036
vt 0.6936310085533974 0.787026673071036
vt 0.6919751491783974 0.829702454321036
vt 0.6501188991783974 0.787026673071036
vt 0.6517751491783974 0.744350891821036
vt 0.6919751491783974 0.744350891821036
vt 0.6936310085533974 0.787026673071036
vt 0.5308160516631122 0.7859266178932487
vt 0.5355320672881122 0.7432508366432488
vt 0.5663000360381122 0.7432508366432488
vt 0.5710160516631122 0.7859266178932487
vt 0.5355320672881122 0.7432508366432488
vt 0.5425902704131123 0.7005750553932487
vt 0.5592418329131121 0.7005750553932487
vt 0.5663000360381122 0.7432508366432488
vt 0.5592418329131121 0.7005750553932487
vt 0.5425902704131123 0.7005750553932487
vt 0.5509160516631122 0.6578992741432488
vt 0.5667850131384071 0.4634874446067513
vt 0.582215482211426 0.4697464507481456
vt 0.5584592318884071 0.5061632258567512
vt 0.5667850131384071 0.4634874446067512
vt 0.5738432162634071 0.42081166335675124
vt 0.6029727322322441 0.4307181864815537
vt 0.5825498483048442 0.46884883489906115
vt 0.6933698529145109 0.8726153802006523
vt 0.6919751485911221 0.8297024694566417
vt 0.7320542589915146 0.8328177398322514
vt 0.7240452961067267 0.8749997220306165
vt 0.6919751485911221 0.8297024694566417
vt 0.6936310085533974 0.787026673071036
vt 0.7370122681403272 0.7903986130042753
vt 0.7320542589915146 0.8328177398322514
vt 0.6936310085533974 0.787026673071036
vt 0.6985894071525209 0.7446075765142661
vt 0.7386685175529135 0.7477228468898758
vt 0.7370122681403272 0.7903986130042753
vt 0.15120625 0.6328125
vt 0.155922265625 0.58984375
vt 0.18669023437499999 0.58984375
vt 0.19140625 0.6328125
vt 0.5687422381694448 0.7427743780965465
vt 0.5592418329131121 0.7005750553932487
vt 0.5746723019861312 0.6943160492518545
vt 0.5972535663231545 0.7312094297356823
vt 0.5746723019861312 0.6943160492518545
vt 0.5592418329131121 0.7005750553932487
vt 0.5509160516631122 0.6578992741432488
vt 0.582215482211426 0.4697464507481456
vt 0.594161761603248 0.48134649136807184
vt 0.5584592318884071 0.5061632258567512
vt 0.5825498483048442 0.46884883489906115
vt 0.6029727322322441 0.4307181864815537
vt 0.6273613913034246 0.44947615038253985
vt 0.5957489413003789 0.4790006070491162
vt 0.585609765625 0.9296875
vt 0.58089375 0.88671875
vt 0.62109375 0.88671875
vt 0.616377734375 0.9296875
vt 0.7320542589915146 0.8328177398322514
vt 0.7370122681403272 0.7903986130042753
vt 0.7800014408621044 0.7971217593864616
vt 0.7717714844439209 0.8390291810790738
vt 0.34320703125 0.7578125
vt 0.344862890625 0.71484375
vt 0.385062890625 0.71484375
vt 0.38671875 0.7578125
vt 0.6295178467305362 0.606909230391202
vt 0.65197096306985 0.5703125
vt 0.6798051126483899 0.5834246324825691
vt 0.6658846547622592 0.6240409341472155
vt 0.5993379469940159 0.7298497866431931
vt 0.5746723019861312 0.6943160492518545
vt 0.586618581377953 0.6827160086319282
vt 0.6214117164079279 0.7084157808378748
vt 0.586618581377953 0.6827160086319282
vt 0.5746723019861312 0.6943160492518545
vt 0.5509160516631122 0.6578992741432488
vt 0.594161761603248 0.48134649136807184
vt 0.6008717606926792 0.496586256652066
vt 0.5584592318884071 0.5061632258567512
vt 0.5957489413003789 0.4790006070491162
vt 0.6273613913034246 0.44947615038253985
vt 0.6444117086310235 0.4750877606409589
vt 0.6049765385763721 0.49286155875538395
vt 0.18806501640377454 0.51171875
vt 0.1800556679947694 0.4695368410017545
vt 0.2201347499213026 0.46642120432103595
vt 0.2187404378028856 0.5093341278102312
vt 0.1800556679947694 0.4695368410017545
vt 0.17509727115421558 0.4271177594895481
vt 0.2184784999213026 0.423745423071036
vt 0.2201347499213026 0.46642120432103595
vt 0.17509727115421558 0.4271177594895481
vt 0.17344063170418128 0.38444200851431376
vt 0.21351971363071448 0.3813263718335952
vt 0.21847849992130258 0.423745423071036
vt 0.6658846547622592 0.6240409341472155
vt 0.6798051126483899 0.5834246324825691
vt 0.7098306696408615 0.5901428039817807
vt 0.7051146540158615 0.6328185852317807
vt 0.6228320582881652 0.7063722786814634
vt 0.586618581377953 0.6827160086319282
vt 0.5933285804673843 0.667476243347934
vt 0.6352303194845399 0.6782133194857749
vt 0.5933285804673843 0.667476243347934
vt 0.586618581377953 0.6827160086319282
vt 0.5509160516631122 0.6578992741432488
vt 0.6008717606926792 0.496586256652066
vt 0.6013613633304815 0.5132306197503784
vt 0.5584592318884072 0.5061632258567512
vt 0.6049765385763721 0.49286155875538395
vt 0.6444117086310235 0.4750877606409589
vt 0.652307760643868 0.5048252834633367
vt 0.6092498659664076 0.508955446002068
vt 0.22485076554630262 0.509096985571036
vt 0.2201347499213026 0.46642120432103595
vt 0.2603347499213026 0.46642120432103595
vt 0.2556187342963026 0.509096985571036
vt 0.2201347499213026 0.46642120432103595
vt 0.2184784999213026 0.423745423071036
vt 0.2619906092963026 0.423745423071036
vt 0.2603347499213026 0.46642120432103595
vt 0.2184784999213026 0.423745423071036
vt 0.2201347499213026 0.381069641821036
vt 0.2603347499213026 0.381069641821036
vt 0.2619906092963026 0.423745423071036
vt 0.7051146540158615 0.6328185852317807
vt 0.7098306696408615 0.5901428039817807
vt 0.7405986383908615 0.5901428039817807
vt 0.7453146540158615 0.6328185852317807
vt 0.6357783796235301 0.6757861824725304
vt 0.5933285804673845 0.667476243347934
vt 0.5938181831051866 0.6508318802496216
vt 0.6366830441953873 0.6450315164360831
vt 0.5938181831051866 0.6508318802496216
vt 0.5933285804673845 0.667476243347934
vt 0.5509160516631122 0.6578992741432488
vt 0.6013613633304815 0.5132306197503784
vt 0.595558762373889 0.5288384497030003
vt 0.5584592318884072 0.5061632258567512
vt 0.6092498659664076 0.508955446002068
vt 0.652307760643868 0.5048252834633367
vt 0.6502085878047347 0.5355215596934011
vt 0.6081137978686678 0.5255682086551822
vt 0.2617294536574161 0.5093341302006523
vt 0.2603347493340272 0.4664212194566417
vt 0.30041385973441975 0.4695364898322514
vt 0.2924048968496319 0.5117184720306165
vt 0.2603347493340272 0.4664212194566417
vt 0.2619906092963026 0.423745423071036
vt 0.3053718688832324 0.4271173630042753
vt 0.30041385973441975 0.4695364898322514
vt 0.2619906092963026 0.423745423071036
vt 0.2669490078954262 0.3813263265142661
vt 0.3070281182958187 0.3844415968898758
vt 0.3053718688832324 0.4271173630042753
vt 0.7453146540158615 0.6328185852317807
vt 0.7405986383908615 0.5901428039817807
vt 0.770624195383333 0.5834246324825691
vt 0.7845446532694638 0.6240409341472155
vt 0.6362785992403233 0.6425763609877797
vt 0.5938181831051866 0.6508318802496216
vt 0.5880155821485942 0.6352240502969997
vt 0.6255569640628342 0.6137373179592948
vt 0.5880155821485942 0.6352240502969997
vt 0.5938181831051866 0.6508318802496216
vt 0.5509160516631122 0.6578992741432487
vt 0.595558762373889 0.5288384497030003
vt 0.5843149912184153 0.5411206377773925
vt 0.5584592318884072 0.5061632258567512
vt 0.6081137978686678 0.5255682086551822
vt 0.6502085878047347 0.5355215596934011
vt 0.6383377599959493 0.5639073192945663
vt 0.6016893298515931 0.5409305243786983
vt 0.485184765625 0.421875
vt 0.48046875 0.37890625
vt 0.52066875 0.37890625
vt 0.515952734375 0.421875
vt 0.5485413985709264 0.36928837842505335
vt 0.5403110591378956 0.3273810319523318
vt 0.5833001704113103 0.3206574926685122
vt 0.5882585672518642 0.3630765741807186
vt 0.390625 0.77734375
vt 0.392280859375 0.734375
vt 0.432480859375 0.734375
vt 0.43413671875 0.77734375
vt 0.5546938177146747 0.9735047076594214
vt 0.5771469340539885 0.9369079772682193
vt 0.6049810836325284 0.9500201097507884
vt 0.5910606257463977 0.9906364114154349
vt 0.624259195457584 0.6116138611626443
vt 0.5880155821485942 0.6352240502969997
vt 0.5767718109931206 0.6229418622226075
vt 0.6034834874996211 0.5889194155900727
vt 0.5767718109931206 0.6229418622226075
vt 0.5880155821485942 0.6352240502969997
vt 0.5509160516631122 0.6578992741432487
vt 0.5843149912184153 0.5411206377773925
vt 0.5692791077290419 0.5482758275991508
vt 0.5584592318884072 0.5061632258567512
vt 0.6016893298515932 0.5409305243786983
vt 0.6383377599959493 0.5639073192945663
vt 0.6179595654775558 0.5869593710290972
vt 0.5906606921661695 0.5534062481851577
vt 0.5962679156608693 0.40525848317896407
vt 0.5882585672518642 0.3630765741807186
vt 0.6283376491783974 0.3599609375
vt 0.6269433370599804 0.4028738609891953
vt 0.5882585672518642 0.3630765741807186
vt 0.5833001704113103 0.3206574926685122
vt 0.6266813991783974 0.31728515625
vt 0.6283376491783974 0.3599609375
vt 0.5833001704113103 0.3206574926685122
vt 0.5816435309612761 0.2779817416932777
vt 0.6217226128878093 0.27486610501255915
vt 0.6266813991783974 0.31728515625
vt 0.5910606257463977 0.9906364114154349
vt 0.6049810836325284 0.9500201097507884
vt 0.635006640625 0.95673828125
vt 0.630290625 0.9994140625
vt 0.6014826308981851 0.5874396031085387
vt 0.5767718109931206 0.6229418622226075
vt 0.5617359275037471 0.6157866724008492
vt 0.5737003900461511 0.57421875
vt 0.5617359275037471 0.6157866724008492
vt 0.5767718109931206 0.6229418622226075
vt 0.5509160516631122 0.6578992741432487
vt 0.5642621271664299 0.5492546095095536
vt 0.5476393560477724 0.5482758275991508
vt 0.5584592318884071 0.5061632258567512
vt 0.6401118679283974 0.4453125
vt 0.6330536648033974 0.40263671874999996
vt 0.6638216335533974 0.40263671874999996
vt 0.6567634304283974 0.4453125
vt 0.6330536648033974 0.40263671874999996
vt 0.6283376491783974 0.3599609375
vt 0.6685376491783974 0.3599609375
vt 0.6638216335533974 0.40263671874999996
vt 0.6283376491783974 0.3599609375
vt 0.6266813991783974 0.31728515625
vt 0.6701935085533974 0.31728515625
vt 0.6685376491783974 0.3599609375
vt 0.6266813991783974 0.31728515625
vt 0.6283376491783974 0.27460937500000004
vt 0.6685376491783974 0.27460937500000004
vt 0.6701935085533974 0.31728515625
vt 0.630290625 0.9994140625
vt 0.635006640625 0.95673828125
vt 0.665774609375 0.95673828125
vt 0.670490625 0.9994140625
vt 0.635006640625 0.95673828125
vt 0.6420648437500001 0.9140625
vt 0.65871640625 0.9140625
vt 0.665774609375 0.95673828125
vt 0.5451131563850896 0.6148078904904464
vt 0.5617359275037471 0.6157866724008492
vt 0.5509160516631122 0.6578992741432487
vn 0.07465793103797119 0.9807853346354797 0.18023962022013915
vn 0.2126076782587166 0.8314693774302472 0.5132802836084737
vn 0.3181899694333248 0.5555706233025905 0.7681773401208805
vn 0.37533056954964356 0.19509011016173025 0.9061273710017947
vn 0.37533079459137847 -0.19509010091994738 0.9061272797761083
vn 0.3181895653316647 -0.5555706624962293 0.768177479159307
vn 0.21260826304804584 -0.8314693224035161 0.5132801305189313
vn 0.07465793103797119 -0.9807853346354797 0.18023962022013915
vn 0.13794950431917374 0.980785332535203 0.13794950431917374
vn 0.39284759477212966 0.8314695030868572 0.39284759477212966
vn 0.5879377897282877 0.5555702573201986 0.5879377897282877
vn 0.6935199036167247 0.1950904574162917 0.6935199036167247
vn 0.6935199036167247 -0.1950904574162917 0.6935199036167247
vn 0.5879377897282876 -0.5555702573201985 0.5879377897282877
vn 0.3928475947721297 -0.8314695030868572 0.39284759477212955
vn 0.13794950431917374 -0.980785332535203 0.13794950431917374
vn 0.18023962022013915 0.9807853346354797 0.07465793103797119
vn 0.5132801041131365 0.8314695072469896 0.21260760390930533
vn 0.7681774979673702 0.5555703676049047 0.3181900348155836
vn 0.906127329774942 0.19509033449998414 0.37533055247290736
vn 0.9061272351524908 -0.1950903437419131 0.375330776107642
vn 0.7681776853955657 -0.5555703284113657 0.31818965075752964
vn 0.5132797988552774 -0.8314695622733367 0.21260812566802828
vn 0.18023962022013915 -0.9807853346354797 0.07465793103797119
vn 0.19508998177711392 0.980785348080917 0
vn 0.5555705797920287 0.8314693805965131 0
vn 0.8314693805965131 0.5555705797920287 0
vn 0.9807853480809171 0.19508998177711392 0
vn 0.9807853480809171 -0.19508998177711395 0
vn 0.8314693805965131 -0.5555705797920287 0
vn 0.5555705797920286 -0.8314693805965131 0
vn 0.19508998177711392 -0.980785348080917 0
vn 0.18023962022013915 0.9807853346354797 -0.07465793103797119
vn 0.5132802836084737 0.8314693774302472 -0.2126076782587166
vn 0.7681773401208805 0.5555706233025905 -0.3181899694333248
vn 0.9061273710017947 0.19509011016173025 -0.37533056954964356
vn 0.9061272797761083 -0.19509010091994738 -0.37533079459137847
vn 0.768177479159307 -0.5555706624962293 -0.3181895653316647
vn 0.5132801305189313 -0.8314693224035161 -0.21260826304804584
vn 0.18023962022013915 -0.9807853346354797 -0.07465793103797119
vn 0.13794950431917374 0.980785332535203 -0.13794950431917374
vn 0.39284759477212966 0.8314695030868572 -0.39284759477212966
vn 0.5879377897282877 0.5555702573201986 -0.5879377897282877
vn 0.6935199036167247 0.1950904574162917 -0.6935199036167247
vn 0.6935199036167247 -0.1950904574162917 -0.6935199036167247
vn 0.5879377897282877 -0.5555702573201986 -0.5879377897282877
vn 0.39284759477212955 -0.8314695030868572 -0.3928475947721297
vn 0.13794950431917374 -0.980785332535203 -0.13794950431917374
vn 0.07465793103797119 0.9807853346354797 -0.18023962022013915
vn 0.21260760390930533 0.8314695072469896 -0.5132801041131365
vn 0.31819003481558356 0.5555703676049046 -0.76817749796737
vn 0.37533055247290736 0.19509033449998414 -0.906127329774942
vn 0.375330776107642 -0.1950903437419131 -0.9061272351524908
vn 0.31818965075752964 -0.5555703284113657 -0.7681776853955657
vn 0.21260812566802822 -0.8314695622733365 -0.5132797988552773
vn 0.07465793103797119 -0.9807853346354797 -0.18023962022013915
vn 0 0.980785348080917 -0.19508998177711392
vn 0 0.8314693805965131 -0.5555705797920287
vn 0 0.5555705797920287 -0.8314693805965131
vn 0 0.19508998177711392 -0.9807853480809171
vn 0 -0.19508998177711395 -0.9807853480809171
vn 0 -0.5555705797920287 -0.8314693805965131
vn 0 -0.8314693805965131 -0.5555705797920286
vn 0 -0.980785348080917 -0.19508998177711392
vn -0.07465793103797119 0.9807853346354797 -0.18023962022013915
vn -0.2126076782587166 0.8314693774302472 -0.5132802836084737
vn -0.3181899694333248 0.5555706233025905 -0.7681773401208805
vn -0.37533056954964356 0.19509011016173025 -0.9061273710017947
vn -0.37533079459137847 -0.19509010091994738 -0.9061272797761083
vn -0.3181895653316647 -0.5555706624962293 -0.768177479159307
vn -0.21260826304804584 -0.8314693224035161 -0.5132801305189313
vn -0.07465793103797119 -0.9807853346354797 -0.18023962022013915
vn -0.13794950431917374 0.980785332535203 -0.13794950431917374
vn -0.39284759477212966 0.8314695030868572 -0.39284759477212966
vn -0.5879377897282877 0.5555702573201986 -0.5879377897282877
vn -0.6935199036167247 0.1950904574162917 -0.6935199036167247
vn -0.6935199036167247 -0.1950904574162917 -0.6935199036167247
vn -0.5879377897282876 -0.5555702573201985 -0.5879377897282877
vn -0.3928475947721297 -0.8314695030868572 -0.39284759477212955
vn -0.13794950431917374 -0.980785332535203 -0.13794950431917374
vn -0.18023962022013915 0.9807853346354797 -0.07465793103797119
vn -0.5132801041131365 0.8314695072469896 -0.21260760390930533
vn -0.7681774979673702 0.5555703676049047 -0.3181900348155836
vn -0.906127329774942 0.19509033449998414 -0.37533055247290736
vn -0.9061272351524908 -0.1950903437419131 -0.375330776107642
vn -0.7681776853955657 -0.5555703284113657 -0.31818965075752964
vn -0.5132797988552774 -0.8314695622733367 -0.21260812566802828
vn -0.18023962022013915 -0.9807853346354797 -0.07465793103797119
vn -0.19508998177711392 0.980785348080917 0
vn -0.5555705797920287 0.8314693805965131 0
vn -0.8314693805965131 0.5555705797920287 0
vn -0.9807853480809171 0.19508998177711392 0
vn -0.9807853480809171 -0.19508998177711395 0
vn -0.8314693805965131 -0.5555705797920287 0
vn -0.5555705797920286 -0.8314693805965131 0
vn -0.19508998177711392 -0.980785348080917 0
vn -0.18023962022013915 0.9807853346354797 0.07465793103797119
vn -0.5132802836084737 0.8314693774302472 0.2126076782587166
vn -0.7681773401208805 0.5555706233025905 0.3181899694333248
vn -0.9061273710017947 0.19509011016173025 0.37533056954964356
vn -0.9061272797761083 -0.19509010091994738 0.37533079459137847
vn -0.768177479159307 -0.5555706624962293 0.3181895653316647
vn -0.5132801305189313 -0.8314693224035161 0.21260826304804584
vn -0.18023962022013915 -0.9807853346354797 0.07465793103797119
vn -0.13794950431917374 0.980785332535203 0.13794950431917374
vn -0.39284759477212966 0.8314695030868572 0.39284759477212966
vn -0.5879377897282877 0.5555702573201986 0.5879377897282877
vn -0.6935199036167247 0.1950904574162917 0.6935199036167247
vn -0.6935199036167247 -0.1950904574162917 0.6935199036167247
vn -0.5879377897282877 -0.5555702573201986 0.5879377897282877
vn -0.39284759477212955 -0.8314695030868572 0.3928475947721297
vn -0.13794950431917374 -0.980785332535203 0.13794950431917374
vn -0.07465793103797119 0.9807853346354797 0.18023962022013915
vn -0.21260760390930533 0.8314695072469896 0.5132801041131365
vn -0.31819003481558356 0.5555703676049046 0.76817749796737
vn -0.37533055247290736 0.19509033449998414 0.906127329774942
vn -0.375330776107642 -0.1950903437419131 0.9061272351524908
vn -0.31818965075752964 -0.5555703284113657 0.7681776853955657
vn -0.21260812566802822 -0.8314695622733365 0.5132797988552773
vn -0.07465793103797119 -0.9807853346354797 0.18023962022013915
vn 0 0.980785348080917 0.19508998177711392
vn 0 0.8314693805965131 0.5555705797920287
vn 0 0.5555705797920287 0.8314693805965131
vn 0 0.19508998177711392 0.9807853480809171
vn 0 -0.19508998177711395 0.9807853480809171
vn 0 -0.5555705797920287 0.8314693805965131
vn 0 -0.8314693805965131 0.5555705797920286
vn 0 -0.980785348080917 0.19508998177711392
usemtl m_1639aaca-f683-74e7-671d-a529b520a466
f 69/289/81 76/290/81 68/291/81
f 69/292/82 70/293/82 77/294/82 76/295/82
f 70/296/83 71/297/83 78/298/83 77/299/83
f 71/300/84 72/301/84 79/302/84 78/303/84
f 72/304/85 73/305/85 80/306/85 79/307/85
f 73/308/86 74/309/86 81/310/86 80/311/86
f 74/312/87 75/313/87 82/314/87 81/315/87
f 82/316/88 75/317/88 67/318/88
f 76/319/89 83/320/89 68/321/89
f 76/322/90 77/323/90 84/324/90 83/325/90
f 77/326/91 78/327/91 85/328/91 84/329/91
f 78/330/92 79/331/92 86/332/92 85/333/92
f 79/334/93 80/335/93 87/336/93 86/337/93
f 80/338/94 81/339/94 88/340/94 87/341/94
f 81/342/95 82/343/95 89/344/95 88/345/95
f 89/346/96 82/347/96 67/348/96
f 83/349/97 90/350/97 68/351/97
f 83/352/98 84/353/98 91/354/98 90/355/98
f 84/356/99 85/357/99 92/358/99 91/359/99
f 85/360/100 86/361/100 93/362/100 92/363/100
f 86/364/101 87/365/101 94/366/101 93/367/101
f 87/368/102 88/369/102 95/370/102 94/371/102
f 88/372/103 89/373/103 96/374/103 95/375/103
f 96/376/104 89/377/104 67/378/104
f 90/379/105 97/380/105 68/381/105
f 90/382/106 91/383/106 98/384/106 97/385/106
f 91/386/107 92/387/107 99/388/107 98/389/107
f 92/390/108 93/391/108 100/392/108 99/393/108
f 93/394/109 94/395/109 101/396/109 100/397/109
f 94/398/110 95/399/110 102/400/110 101/401/110
f 95/402/111 96/403/111 103/404/111 102/405/111
f 103/406/112 96/407/112 67/408/112
f 97/409/113 104/410/113 68/411/113
f 97/412/114 98/413/114 105/414/114 104/415/114
f 98/416/115 99/417/115 106/418/115 105/419/115
f 99/420/116 100/421/116 107/422/116 106/423/116
f 100/424/117 101/425/117 108/426/117 107/427/117
f 101/428/118 102/429/118 109/430/118 108/431/118
f 102/432/119 103/433/119 110/434/119 109/435/119
f 110/436/120 103/437/120 67/438/120
f 104/439/121 111/440/121 68/441/121
f 104/442/122 105/443/122 112/444/122 111/445/122
f 105/446/123 106/447/123 113/448/123 112/449/123
f 106/450/124 107/451/124 114/452/124 113/453/124
f 107/454/125 108/455/125 115/456/125 114/457/125
f 108/458/126 109/459/126 116/460/126 115/461/126
f 109/462/127 110/463/127 117/464/127 116/465/127
f 117/466/128 110/467/128 67/468/128
f 111/469/129 118/470/129 68/471/129
f 111/472/130 112/473/130 119/474/130 118/475/130
f 112/476/131 113/477/131 120/478/131 119/479/131
f 113/480/132 114/481/132 121/482/132 120/483/132
f 114/484/133 115/485/133 122/486/133 121/487/133
f 115/488/134 116/489/134 123/490/134 122/491/134
f 116/492/135 117/493/135 124/494/135 123/495/135
f 124/496/136 117/497/136 67/498/136
f 118/499/137 125/500/137 68/501/137
f 118/502/138 119/503/138 126/504/138 125/505/138
f 119/506/139 120/507/139 127/508/139 126/509/139
f 120/510/140 121/511/140 128/512/140 127/513/140
f 121/514/141 122/515/141 129/516/141 128/517/141
f 122/518/142 123/519/142 130/520/142 129/521/142
f 123/522/143 124/523/143 131/524/143 130/525/143
f 131/526/144 124/527/144 67/528/144
f 125/529/145 132/530/145 68/531/145
f 125/532/146 126/533/146 133/534/146 132/535/146
f 126/536/147 127/537/147 134/538/147 133/539/147
f 127/540/148 128/541/148 135/542/148 134/543/148
f 128/544/149 129/545/149 136/546/149 135/547/149
f 129/548/150 130/549/150 137/550/150 136/551/150
f 130/552/151 131/553/151 138/554/151 137/555/151
f 138/556/152 131/557/152 67/558/152
f 132/559/153 139/560/153 68/561/153
f 132/562/154 133/563/154 140/564/154 139/565/154
f 133/566/155 134/567/155 141/568/155 140/569/155
f 134/570/156 135/571/156 142/572/156 141/573/156
f 135/574/157 136/575/157 143/576/157 142/577/157
f 136/578/158 137/579/158 144/580/158 143/581/158
f 137/582/159 138/583/159 145/584/159 144/585/159
f 145/586/160 138/587/160 67/588/160
f 139/589/161 146/590/161 68/591/161
f 139/592/162 140/593/162 147/594/162 146/595/162
f 140/596/163 141/597/163 148/598/163 147/599/163
f 141/600/164 142/601/164 149/602/164 148/603/164
f 142/604/165 143/605/165 150/606/165 149/607/165
f 143/608/166 144/609/166 151/610/166 150/611/166
f 144/612/167 145/613/167 152/614/167 151/615/167
f 152/616/168 145/617/168 67/618/168
f 146/619/169 153/620/169 68/621/169
f 146/622/170 147/623/170 154/624/170 153/625/170
f 147/626/171 148/627/171 155/628/171 154/629/171
f 148/630/172 149/631/172 156/632/172 155/633/172
f 149/634/173 150/635/173 157/636/173 156/637/173
f 150/638/174 151/639/174 158/640/174 157/641/174
f 151/642/175 152/643/175 159/644/175 158/645/175
f 159/646/176 152/647/176 67/648/176
f 153/649/177 160/650/177 68/651/177
f 153/652/178 154/653/178 161/654/178 160/655/178
f 154/656/179 155/657/179 162/658/179 161/659/179
f 155/660/180 156/661/180 163/662/180 162/663/180
f 156/664/181 157/665/181 164/666/181 163/667/181
f 157/668/182 158/669/182 165/670/182 164/671/182
f 158/672/183 159/673/183 166/674/183 165/675/183
f 166/676/184 159/677/184 67/678/184
f 160/679/185 167/680/185 68/681/185
f 160/682/186 161/683/186 168/684/186 167/685/186
f 161/686/187 162/687/187 169/688/187 168/689/187
f 162/690/188 163/691/188 170/692/188 169/693/188
f 163/694/189 164/695/189 171/696/189 170/697/189
f 164/698/190 165/699/190 172/700/190 171/701/190
f 165/702/191 166/703/191 173/704/191 172/705/191
f 173/706/192 166/707/192 67/708/192
f 167/709/193 174/710/193 68/711/193
f 167/712/194 168/713/194 175/714/194 174/715/194
f 168/716/195 169/717/195 176/718/195 175/719/195
f 169/720/196 170/721/196 177/722/196 176/723/196
f 170/724/197 171/725/197 178/726/197 177/727/197
f 171/728/198 172/729/198 179/730/198 178/731/198
f 172/732/199 173/733/199 180/734/199 179/735/199
f 180/736/200 173/737/200 67/738/200
f 174/739/201 69/740/201 68/741/201
f 174/742/202 175/743/202 70/744/202 69/745/202
f 175/746/203 176/747/203 71/748/203 70/749/203
f 176/750/204 177/751/204 72/752/204 71/753/204
f 177/754/205 178/755/205 73/756/205 72/757/205
f 178/758/206 179/759/206 74/760/206 73/761/206
f 179/762/207 180/763/207 75/764/207 74/765/207
f 75/766/208 180/767/208 67/768/208